<svg version="1.1" viewBox="0.0 0.0 960.0 720.0" fill="none" stroke="none" stroke-linecap="square" stroke-miterlimit="10" xmlns:xlink="http://www.w3.org/1999/xlink" xmlns="http://www.w3.org/2000/svg"><clipPath id="p.0"><path d="m0 0l960.0 0l0 720.0l-960.0 0l0 -720.0z" clip-rule="nonzero"/></clipPath><g clip-path="url(#p.0)"><path fill="#000000" fill-opacity="0.0" d="m0 0l960.0 0l0 720.0l-960.0 0z" fill-rule="evenodd"/><path fill="#000000" fill-opacity="0.0" d="m256.458 279.54724l164.37796 0l0 22.677155l-164.37796 0z" fill-rule="evenodd"/><path stroke="#000000" stroke-width="1.0" stroke-linejoin="round" stroke-linecap="butt" d="m256.458 279.54724l164.37796 0l0 22.677155l-164.37796 0z" fill-rule="evenodd"/><path fill="#000000" fill-opacity="0.0" d="m256.458 335.54724l164.37796 0l0 22.677155l-164.37796 0z" fill-rule="evenodd"/><path stroke="#000000" stroke-width="1.0" stroke-linejoin="round" stroke-linecap="butt" d="m256.458 335.54724l164.37796 0l0 22.677155l-164.37796 0z" fill-rule="evenodd"/><path fill="#000000" fill-opacity="0.0" d="m256.458 391.54724l164.37796 0l0 22.677155l-164.37796 0z" fill-rule="evenodd"/><path stroke="#000000" stroke-width="1.0" stroke-linejoin="round" stroke-linecap="butt" d="m256.458 391.54724l164.37796 0l0 22.677155l-164.37796 0z" fill-rule="evenodd"/><path fill="#000000" fill-opacity="0.0" d="m256.458 447.54724l164.37796 0l0 22.677155l-164.37796 0z" fill-rule="evenodd"/><path stroke="#000000" stroke-width="1.0" stroke-linejoin="round" stroke-linecap="butt" d="m256.458 447.54724l164.37796 0l0 22.677155l-164.37796 0z" fill-rule="evenodd"/><path fill="#000000" fill-opacity="0.0" d="m256.45276 250.10892l164.37796 0l0 29.448822l-164.37796 0z" fill-rule="evenodd"/><path fill="#000000" d="m263.71838 266.70456q0 0.5625 -0.21875 1.125q-0.203125 0.5625 -0.65625 1.015625q-0.453125 0.4375 -1.15625 0.71875q-0.703125 0.265625 -1.671875 0.265625l-1.15625 0l0 3.359375l-1.28125 0l0 -9.359375l2.640625 0q0.6875 0 1.328125 0.15625q0.640625 0.15625 1.125 0.5q0.484375 0.34375 0.765625 0.890625q0.28125 0.546875 0.28125 1.328125zm-1.3125 0.046875q0 -0.890625 -0.59375 -1.375q-0.59375 -0.484375 -1.65625 -0.484375l-1.296875 0l0 3.859375l1.1875 0q1.125 0 1.734375 -0.5q0.625 -0.5 0.625 -1.5zm7.870575 6.4375l-0.03125 -0.96875q-0.59375 0.578125 -1.203125 0.84375q-0.59375 0.25 -1.265625 0.25q-0.609375 0 -1.046875 -0.15625q-0.4375 -0.15625 -0.71875 -0.421875q-0.28125 -0.28125 -0.421875 -0.65625q-0.125 -0.375 -0.125 -0.8125q0 -1.078125 0.796875 -1.6875q0.8125 -0.609375 2.390625 -0.609375l1.484375 0l0 -0.640625q0 -0.625 -0.40625 -1.0q-0.40625 -0.390625 -1.25 -0.390625q-0.609375 0 -1.203125 0.140625q-0.578125 0.125 -1.21875 0.375l0 -1.125q0.25 -0.078125 0.53125 -0.15625q0.296875 -0.09375 0.609375 -0.15625q0.328125 -0.0625 0.671875 -0.09375q0.359375 -0.046875 0.71875 -0.046875q0.640625 0 1.15625 0.140625q0.53125 0.140625 0.890625 0.4375q0.359375 0.296875 0.546875 0.75q0.203125 0.4375 0.203125 1.03125l0 4.953125l-1.109375 0zm-0.140625 -3.265625l-1.578125 0q-0.46875 0 -0.8125 0.09375q-0.328125 0.09375 -0.546875 0.265625q-0.21875 0.171875 -0.328125 0.40625q-0.09375 0.234375 -0.09375 0.546875q0 0.203125 0.0625 0.390625q0.0625 0.1875 0.203125 0.34375q0.15625 0.140625 0.375 0.234375q0.234375 0.078125 0.5625 0.078125q0.4375 0 0.984375 -0.265625q0.5625 -0.265625 1.171875 -0.828125l0 -1.265625zm8.745575 -2.90625q0.203125 0.25 0.3125 0.59375q0.109375 0.328125 0.109375 0.71875q0 0.546875 -0.203125 1.015625q-0.203125 0.453125 -0.578125 0.78125q-0.359375 0.328125 -0.890625 0.515625q-0.515625 0.1875 -1.140625 0.1875q-0.4375 0 -0.84375 -0.09375q-0.390625 -0.109375 -0.609375 -0.25q-0.140625 0.203125 -0.234375 0.390625q-0.09375 0.171875 -0.09375 0.390625q0 0.28125 0.25 0.46875q0.265625 0.171875 0.703125 0.171875l1.890625 0.078125q0.53125 0.015625 0.984375 0.140625q0.453125 0.125 0.78125 0.359375q0.328125 0.21875 0.5 0.5625q0.1875 0.328125 0.1875 0.765625q0 0.484375 -0.203125 0.90625q-0.203125 0.4375 -0.640625 0.765625q-0.4375 0.328125 -1.109375 0.515625q-0.65625 0.1875 -1.5625 0.1875q-0.875 0 -1.5 -0.140625q-0.609375 -0.125 -1.0 -0.375q-0.390625 -0.25 -0.578125 -0.59375q-0.171875 -0.34375 -0.171875 -0.75q0 -0.515625 0.234375 -0.921875q0.25 -0.390625 0.765625 -0.75q-0.1875 -0.078125 -0.328125 -0.203125q-0.140625 -0.140625 -0.234375 -0.296875q-0.078125 -0.15625 -0.125 -0.328125q-0.03125 -0.171875 -0.03125 -0.328125q0 -0.46875 0.21875 -0.84375q0.21875 -0.390625 0.515625 -0.734375q-0.140625 -0.171875 -0.25 -0.328125q-0.09375 -0.15625 -0.171875 -0.328125q-0.078125 -0.1875 -0.125 -0.390625q-0.03125 -0.21875 -0.03125 -0.5q0 -0.5625 0.203125 -1.015625q0.21875 -0.46875 0.578125 -0.796875q0.375 -0.328125 0.890625 -0.5q0.515625 -0.1875 1.140625 -0.1875q0.265625 0 0.515625 0.03125q0.25 0.03125 0.421875 0.09375l2.609375 0l0 1.015625l-1.15625 0zm-4.3125 7.203125q0 0.515625 0.53125 0.75q0.53125 0.234375 1.46875 0.234375q0.59375 0 1.0 -0.109375q0.40625 -0.109375 0.640625 -0.28125q0.25 -0.171875 0.359375 -0.40625q0.109375 -0.21875 0.109375 -0.453125q0 -0.4375 -0.359375 -0.65625q-0.359375 -0.203125 -1.09375 -0.234375l-1.875 -0.0625q-0.234375 0.15625 -0.390625 0.296875q-0.15625 0.15625 -0.25 0.3125q-0.078125 0.15625 -0.109375 0.296875q-0.03125 0.15625 -0.03125 0.3125zm0.375 -5.875q0 0.34375 0.109375 0.640625q0.125 0.28125 0.328125 0.484375q0.203125 0.203125 0.484375 0.3125q0.28125 0.109375 0.625 0.109375q0.375 0 0.65625 -0.125q0.296875 -0.125 0.5 -0.34375q0.203125 -0.21875 0.296875 -0.484375q0.109375 -0.28125 0.109375 -0.59375q0 -0.34375 -0.125 -0.625q-0.109375 -0.28125 -0.3125 -0.484375q-0.203125 -0.203125 -0.5 -0.3125q-0.28125 -0.109375 -0.625 -0.109375q-0.359375 0 -0.65625 0.125q-0.28125 0.125 -0.484375 0.34375q-0.203125 0.203125 -0.3125 0.484375q-0.09375 0.28125 -0.09375 0.578125zm12.901825 0.875q0 0.265625 -0.015625 0.453125q0 0.171875 -0.015625 0.328125l-5.046875 0q0 1.09375 0.609375 1.6875q0.625 0.59375 1.78125 0.59375q0.3125 0 0.625 -0.015625q0.3125 -0.03125 0.609375 -0.078125q0.296875 -0.046875 0.5625 -0.09375q0.265625 -0.0625 0.5 -0.125l0 1.03125q-0.515625 0.140625 -1.15625 0.21875q-0.640625 0.09375 -1.328125 0.09375q-0.921875 0 -1.59375 -0.25q-0.65625 -0.25 -1.078125 -0.71875q-0.421875 -0.484375 -0.625 -1.171875q-0.203125 -0.6875 -0.203125 -1.5625q0 -0.765625 0.21875 -1.4375q0.21875 -0.671875 0.625 -1.1875q0.421875 -0.515625 1.03125 -0.8125q0.609375 -0.296875 1.375 -0.296875q0.765625 0 1.34375 0.234375q0.578125 0.234375 0.96875 0.671875q0.40625 0.4375 0.609375 1.0625q0.203125 0.609375 0.203125 1.375zm-1.296875 -0.1875q0.015625 -0.46875 -0.109375 -0.859375q-0.109375 -0.40625 -0.34375 -0.6875q-0.234375 -0.296875 -0.59375 -0.453125q-0.359375 -0.15625 -0.828125 -0.15625q-0.40625 0 -0.75 0.15625q-0.328125 0.15625 -0.578125 0.4375q-0.25 0.28125 -0.40625 0.6875q-0.140625 0.40625 -0.171875 0.875l3.78125 0zm9.839325 4.15625l-1.234375 0l-0.1875 -5.828125l-0.078125 -2.25l-0.4375 1.3125l-1.390625 3.71875l-0.875 0l-1.3125 -3.578125l-0.4375 -1.453125l-0.03125 2.34375l-0.171875 5.734375l-1.203125 0l0.46875 -9.359375l1.5 0l1.265625 3.53125l0.40625 1.1875l0.390625 -1.1875l1.328125 -3.53125l1.546875 0l0.453125 9.359375zm6.120575 0l-0.03125 -0.96875q-0.59375 0.578125 -1.203125 0.84375q-0.59375 0.25 -1.265625 0.25q-0.609375 0 -1.046875 -0.15625q-0.4375 -0.15625 -0.71875 -0.421875q-0.28125 -0.28125 -0.421875 -0.65625q-0.125 -0.375 -0.125 -0.8125q0 -1.078125 0.796875 -1.6875q0.8125 -0.609375 2.390625 -0.609375l1.484375 0l0 -0.640625q0 -0.625 -0.40625 -1.0q-0.40625 -0.390625 -1.25 -0.390625q-0.609375 0 -1.203125 0.140625q-0.578125 0.125 -1.21875 0.375l0 -1.125q0.25 -0.078125 0.53125 -0.15625q0.296875 -0.09375 0.609375 -0.15625q0.328125 -0.0625 0.671875 -0.09375q0.359375 -0.046875 0.71875 -0.046875q0.640625 0 1.15625 0.140625q0.53125 0.140625 0.890625 0.4375q0.359375 0.296875 0.546875 0.75q0.203125 0.4375 0.203125 1.03125l0 4.953125l-1.109375 0zm-0.140625 -3.265625l-1.578125 0q-0.46875 0 -0.8125 0.09375q-0.328125 0.09375 -0.546875 0.265625q-0.21875 0.171875 -0.328125 0.40625q-0.09375 0.234375 -0.09375 0.546875q0 0.203125 0.0625 0.390625q0.0625 0.1875 0.203125 0.34375q0.15625 0.140625 0.375 0.234375q0.234375 0.078125 0.5625 0.078125q0.4375 0 0.984375 -0.265625q0.5625 -0.265625 1.171875 -0.828125l0 -1.265625zm9.2612 1.3125q0 0.375 -0.125 0.671875q-0.125 0.296875 -0.34375 0.53125q-0.21875 0.234375 -0.515625 0.40625q-0.296875 0.15625 -0.640625 0.265625q-0.328125 0.109375 -0.6875 0.15625q-0.34375 0.046875 -0.671875 0.046875q-0.734375 0 -1.34375 -0.0625q-0.609375 -0.0625 -1.203125 -0.203125l0 -1.140625q0.640625 0.171875 1.25 0.265625q0.625 0.09375 1.25 0.09375q0.890625 0 1.3125 -0.234375q0.4375 -0.25 0.4375 -0.703125q0 -0.1875 -0.078125 -0.34375q-0.0625 -0.15625 -0.25 -0.296875q-0.171875 -0.140625 -0.546875 -0.28125q-0.375 -0.15625 -1.015625 -0.359375q-0.5 -0.140625 -0.90625 -0.3125q-0.40625 -0.1875 -0.71875 -0.4375q-0.296875 -0.25 -0.46875 -0.578125q-0.171875 -0.34375 -0.171875 -0.8125q0 -0.296875 0.140625 -0.65625q0.140625 -0.359375 0.46875 -0.65625q0.34375 -0.3125 0.921875 -0.515625q0.578125 -0.203125 1.421875 -0.203125q0.421875 0 0.9375 0.046875q0.515625 0.046875 1.078125 0.15625l0 1.109375q-0.578125 -0.140625 -1.109375 -0.203125q-0.53125 -0.078125 -0.90625 -0.078125q-0.46875 0 -0.796875 0.078125q-0.3125 0.0625 -0.515625 0.203125q-0.1875 0.125 -0.28125 0.296875q-0.078125 0.15625 -0.078125 0.34375q0 0.203125 0.0625 0.359375q0.078125 0.15625 0.28125 0.3125q0.21875 0.140625 0.578125 0.28125q0.359375 0.140625 0.953125 0.3125q0.640625 0.1875 1.0625 0.390625q0.4375 0.203125 0.703125 0.46875q0.28125 0.25 0.390625 0.5625q0.125 0.3125 0.125 0.71875zm8.839325 1.953125l-1.71875 0l-3.34375 -3.84375l0 3.84375l-1.25 0l0 -10.109375l1.25 0l0 6.203125l3.234375 -3.28125l1.640625 0l-3.375 3.3125l3.5625 3.875z" fill-rule="nonzero"/><path fill="#000000" fill-opacity="0.0" d="m256.45276 306.10892l164.37796 0l0 29.448822l-164.37796 0z" fill-rule="evenodd"/><path fill="#000000" d="m263.20276 329.18893l-5.3125 0l0 -9.359375l5.3125 0l0 1.078125l-4.03125 0l0 2.90625l3.875 0l0 1.0625l-3.875 0l0 3.21875l4.03125 0l0 1.09375zm2.4487 -7.1875l1.109375 0l0.046875 1.15625q0.328125 -0.359375 0.609375 -0.609375q0.296875 -0.25 0.578125 -0.390625q0.28125 -0.15625 0.578125 -0.21875q0.296875 -0.0625 0.609375 -0.0625q1.109375 0 1.671875 0.65625q0.578125 0.65625 0.578125 1.96875l0 4.6875l-1.25 0l0 -4.59375q0 -0.84375 -0.3125 -1.234375q-0.3125 -0.40625 -0.9375 -0.40625q-0.234375 0 -0.453125 0.0625q-0.21875 0.0625 -0.453125 0.234375q-0.234375 0.171875 -0.515625 0.453125q-0.265625 0.28125 -0.609375 0.71875l0 4.765625l-1.25 0l0 -7.1875zm13.85495 7.09375q-0.421875 0.09375 -0.875 0.140625q-0.453125 0.046875 -0.921875 0.046875q-1.34375 0 -2.015625 -0.609375q-0.65625 -0.609375 -0.65625 -1.875l0 -3.75l-2.015625 0l0 -1.046875l2.015625 0l0 -1.96875l1.234375 -0.328125l0 2.296875l3.234375 0l0 1.046875l-3.234375 0l0 3.65625q0 0.765625 0.40625 1.15625q0.421875 0.375 1.21875 0.375q0.34375 0 0.75 -0.046875q0.40625 -0.0625 0.859375 -0.171875l0 1.078125zm2.558075 -7.09375l1.140625 0l0.03125 1.328125q0.640625 -0.765625 1.25 -1.109375q0.625 -0.34375 1.25 -0.34375q1.125 0 1.703125 0.71875q0.578125 0.71875 0.53125 2.15625l-1.265625 0q0.03125 -0.953125 -0.265625 -1.375q-0.296875 -0.421875 -0.875 -0.421875q-0.25 0 -0.515625 0.09375q-0.25 0.078125 -0.515625 0.28125q-0.265625 0.1875 -0.5625 0.5q-0.296875 0.3125 -0.640625 0.75l0 4.609375l-1.265625 0l0 -7.1875zm14.151825 0l-2.4375 6.421875q-0.390625 0.984375 -0.796875 1.6875q-0.390625 0.71875 -0.875 1.171875q-0.484375 0.453125 -1.0625 0.671875q-0.5625 0.21875 -1.265625 0.21875q-0.1875 0 -0.34375 -0.015625q-0.15625 0 -0.328125 -0.015625l0 -1.140625q0.15625 0.03125 0.34375 0.046875q0.1875 0.015625 0.390625 0.015625q0.34375 0 0.640625 -0.109375q0.296875 -0.09375 0.5625 -0.328125q0.265625 -0.21875 0.5 -0.578125q0.25 -0.34375 0.484375 -0.859375l-2.875 -7.1875l1.421875 0l1.8125 4.75l0.375 1.125l0.40625 -1.15625l1.6875 -4.71875l1.359375 0zm7.79245 7.1875l-1.265625 0l0 -4.296875l-3.9375 0l0 4.296875l-1.265625 0l0 -9.359375l1.265625 0l0 3.96875l3.9375 0l0 -3.96875l1.265625 0l0 9.359375zm4.3862 -6.15625l-2.125 0l0 -1.03125l3.390625 0l0 6.15625l2.125 0l0 1.03125l-5.75 0l0 -1.03125l2.359375 0l0 -5.125zm0.4375 -4.046875q0.203125 0 0.375 0.078125q0.1875 0.078125 0.3125 0.21875q0.140625 0.125 0.21875 0.3125q0.078125 0.171875 0.078125 0.375q0 0.203125 -0.078125 0.390625q-0.078125 0.171875 -0.21875 0.3125q-0.125 0.125 -0.3125 0.203125q-0.171875 0.078125 -0.375 0.078125q-0.203125 0 -0.390625 -0.078125q-0.171875 -0.078125 -0.3125 -0.203125q-0.125 -0.140625 -0.203125 -0.3125q-0.078125 -0.1875 -0.078125 -0.390625q0 -0.203125 0.078125 -0.375q0.078125 -0.1875 0.203125 -0.3125q0.140625 -0.140625 0.3125 -0.21875q0.1875 -0.078125 0.390625 -0.078125z" fill-rule="nonzero"/><path fill="#000000" fill-opacity="0.0" d="m256.45276 362.10892l164.37796 0l0 29.448822l-164.37796 0z" fill-rule="evenodd"/><path fill="#000000" d="m263.20276 385.18893l-5.3125 0l0 -9.359375l5.3125 0l0 1.078125l-4.03125 0l0 2.90625l3.875 0l0 1.0625l-3.875 0l0 3.21875l4.03125 0l0 1.09375zm2.4487 -7.1875l1.109375 0l0.046875 1.15625q0.328125 -0.359375 0.609375 -0.609375q0.296875 -0.25 0.578125 -0.390625q0.28125 -0.15625 0.578125 -0.21875q0.296875 -0.0625 0.609375 -0.0625q1.109375 0 1.671875 0.65625q0.578125 0.65625 0.578125 1.96875l0 4.6875l-1.25 0l0 -4.59375q0 -0.84375 -0.3125 -1.234375q-0.3125 -0.40625 -0.9375 -0.40625q-0.234375 0 -0.453125 0.0625q-0.21875 0.0625 -0.453125 0.234375q-0.234375 0.171875 -0.515625 0.453125q-0.265625 0.28125 -0.609375 0.71875l0 4.765625l-1.25 0l0 -7.1875zm13.85495 7.09375q-0.421875 0.09375 -0.875 0.140625q-0.453125 0.046875 -0.921875 0.046875q-1.34375 0 -2.015625 -0.609375q-0.65625 -0.609375 -0.65625 -1.875l0 -3.75l-2.015625 0l0 -1.046875l2.015625 0l0 -1.96875l1.234375 -0.328125l0 2.296875l3.234375 0l0 1.046875l-3.234375 0l0 3.65625q0 0.765625 0.40625 1.15625q0.421875 0.375 1.21875 0.375q0.34375 0 0.75 -0.046875q0.40625 -0.0625 0.859375 -0.171875l0 1.078125zm2.558075 -7.09375l1.140625 0l0.03125 1.328125q0.640625 -0.765625 1.25 -1.109375q0.625 -0.34375 1.25 -0.34375q1.125 0 1.703125 0.71875q0.578125 0.71875 0.53125 2.15625l-1.265625 0q0.03125 -0.953125 -0.265625 -1.375q-0.296875 -0.421875 -0.875 -0.421875q-0.25 0 -0.515625 0.09375q-0.25 0.078125 -0.515625 0.28125q-0.265625 0.1875 -0.5625 0.5q-0.296875 0.3125 -0.640625 0.75l0 4.609375l-1.265625 0l0 -7.1875zm14.151825 0l-2.4375 6.421875q-0.390625 0.984375 -0.796875 1.6875q-0.390625 0.71875 -0.875 1.171875q-0.484375 0.453125 -1.0625 0.671875q-0.5625 0.21875 -1.265625 0.21875q-0.1875 0 -0.34375 -0.015625q-0.15625 0 -0.328125 -0.015625l0 -1.140625q0.15625 0.03125 0.34375 0.046875q0.1875 0.015625 0.390625 0.015625q0.34375 0 0.640625 -0.109375q0.296875 -0.09375 0.5625 -0.328125q0.265625 -0.21875 0.5 -0.578125q0.25 -0.34375 0.484375 -0.859375l-2.875 -7.1875l1.421875 0l1.8125 4.75l0.375 1.125l0.40625 -1.15625l1.6875 -4.71875l1.359375 0zm7.5737 7.1875l-5.375 0l0 -9.359375l1.296875 0l0 8.265625l4.078125 0l0 1.09375zm8.41745 -3.65625q0 0.84375 -0.25 1.546875q-0.234375 0.6875 -0.671875 1.1875q-0.4375 0.5 -1.078125 0.78125q-0.640625 0.265625 -1.453125 0.265625q-0.765625 0 -1.390625 -0.234375q-0.609375 -0.234375 -1.03125 -0.703125q-0.421875 -0.46875 -0.65625 -1.15625q-0.21875 -0.6875 -0.21875 -1.578125q0 -0.84375 0.234375 -1.53125q0.234375 -0.6875 0.671875 -1.1875q0.453125 -0.5 1.09375 -0.765625q0.640625 -0.28125 1.4375 -0.28125q0.78125 0 1.390625 0.25q0.609375 0.234375 1.03125 0.703125q0.4375 0.453125 0.65625 1.140625q0.234375 0.6875 0.234375 1.5625zm-1.28125 0.0625q0 -0.671875 -0.15625 -1.15625q-0.140625 -0.5 -0.421875 -0.828125q-0.265625 -0.34375 -0.65625 -0.5q-0.375 -0.171875 -0.859375 -0.171875q-0.5625 0 -0.96875 0.21875q-0.390625 0.21875 -0.640625 0.578125q-0.25 0.359375 -0.375 0.84375q-0.109375 0.484375 -0.109375 1.015625q0 0.671875 0.140625 1.171875q0.140625 0.5 0.40625 0.828125q0.28125 0.328125 0.671875 0.5q0.390625 0.171875 0.875 0.171875q0.5625 0 0.953125 -0.21875q0.390625 -0.21875 0.640625 -0.578125q0.265625 -0.375 0.375 -0.859375q0.125 -0.484375 0.125 -1.015625zm9.35495 -1.078125q0 1.078125 -0.21875 1.96875q-0.203125 0.875 -0.640625 1.515625q-0.4375 0.625 -1.09375 0.96875q-0.640625 0.34375 -1.515625 0.34375q-0.75 0 -1.375 -0.28125q-0.609375 -0.28125 -1.046875 -0.859375q-0.421875 -0.59375 -0.671875 -1.5q-0.234375 -0.90625 -0.234375 -2.15625q0 -1.078125 0.21875 -1.953125q0.21875 -0.890625 0.65625 -1.515625q0.4375 -0.640625 1.078125 -0.984375q0.65625 -0.359375 1.515625 -0.359375q0.765625 0 1.375 0.28125q0.609375 0.28125 1.046875 0.875q0.4375 0.59375 0.671875 1.5q0.234375 0.90625 0.234375 2.15625zm-1.25 0.046875q0 -0.25 -0.015625 -0.484375q-0.015625 -0.25 -0.046875 -0.46875l-3.953125 2.9375q0.109375 0.375 0.265625 0.6875q0.171875 0.3125 0.40625 0.546875q0.234375 0.21875 0.53125 0.34375q0.296875 0.125 0.671875 0.125q0.484375 0 0.875 -0.234375q0.40625 -0.234375 0.6875 -0.703125q0.28125 -0.46875 0.421875 -1.15625q0.15625 -0.6875 0.15625 -1.59375zm-4.28125 -0.09375q0 0.21875 0 0.453125q0 0.21875 0.03125 0.421875l3.953125 -2.921875q-0.109375 -0.375 -0.28125 -0.671875q-0.15625 -0.296875 -0.390625 -0.515625q-0.21875 -0.21875 -0.515625 -0.34375q-0.296875 -0.125 -0.65625 -0.125q-0.484375 0 -0.890625 0.25q-0.390625 0.234375 -0.671875 0.703125q-0.28125 0.46875 -0.4375 1.15625q-0.140625 0.6875 -0.140625 1.59375z" fill-rule="nonzero"/><path fill="#000000" fill-opacity="0.0" d="m256.45276 418.10892l164.37796 0l0 29.448822l-164.37796 0z" fill-rule="evenodd"/><path fill="#000000" d="m263.20276 441.18893l-5.3125 0l0 -9.359375l5.3125 0l0 1.078125l-4.03125 0l0 2.90625l3.875 0l0 1.0625l-3.875 0l0 3.21875l4.03125 0l0 1.09375zm2.4487 -7.1875l1.109375 0l0.046875 1.15625q0.328125 -0.359375 0.609375 -0.609375q0.296875 -0.25 0.578125 -0.390625q0.28125 -0.15625 0.578125 -0.21875q0.296875 -0.0625 0.609375 -0.0625q1.109375 0 1.671875 0.65625q0.578125 0.65625 0.578125 1.96875l0 4.6875l-1.25 0l0 -4.59375q0 -0.84375 -0.3125 -1.234375q-0.3125 -0.40625 -0.9375 -0.40625q-0.234375 0 -0.453125 0.0625q-0.21875 0.0625 -0.453125 0.234375q-0.234375 0.171875 -0.515625 0.453125q-0.265625 0.28125 -0.609375 0.71875l0 4.765625l-1.25 0l0 -7.1875zm13.85495 7.09375q-0.421875 0.09375 -0.875 0.140625q-0.453125 0.046875 -0.921875 0.046875q-1.34375 0 -2.015625 -0.609375q-0.65625 -0.609375 -0.65625 -1.875l0 -3.75l-2.015625 0l0 -1.046875l2.015625 0l0 -1.96875l1.234375 -0.328125l0 2.296875l3.234375 0l0 1.046875l-3.234375 0l0 3.65625q0 0.765625 0.40625 1.15625q0.421875 0.375 1.21875 0.375q0.34375 0 0.75 -0.046875q0.40625 -0.0625 0.859375 -0.171875l0 1.078125zm2.558075 -7.09375l1.140625 0l0.03125 1.328125q0.640625 -0.765625 1.25 -1.109375q0.625 -0.34375 1.25 -0.34375q1.125 0 1.703125 0.71875q0.578125 0.71875 0.53125 2.15625l-1.265625 0q0.03125 -0.953125 -0.265625 -1.375q-0.296875 -0.421875 -0.875 -0.421875q-0.25 0 -0.515625 0.09375q-0.25 0.078125 -0.515625 0.28125q-0.265625 0.1875 -0.5625 0.5q-0.296875 0.3125 -0.640625 0.75l0 4.609375l-1.265625 0l0 -7.1875zm14.151825 0l-2.4375 6.421875q-0.390625 0.984375 -0.796875 1.6875q-0.390625 0.71875 -0.875 1.171875q-0.484375 0.453125 -1.0625 0.671875q-0.5625 0.21875 -1.265625 0.21875q-0.1875 0 -0.34375 -0.015625q-0.15625 0 -0.328125 -0.015625l0 -1.140625q0.15625 0.03125 0.34375 0.046875q0.1875 0.015625 0.390625 0.015625q0.34375 0 0.640625 -0.109375q0.296875 -0.09375 0.5625 -0.328125q0.265625 -0.21875 0.5 -0.578125q0.25 -0.34375 0.484375 -0.859375l-2.875 -7.1875l1.421875 0l1.8125 4.75l0.375 1.125l0.40625 -1.15625l1.6875 -4.71875l1.359375 0zm7.5737 7.1875l-5.375 0l0 -9.359375l1.296875 0l0 8.265625l4.078125 0l0 1.09375zm8.41745 -3.65625q0 0.84375 -0.25 1.546875q-0.234375 0.6875 -0.671875 1.1875q-0.4375 0.5 -1.078125 0.78125q-0.640625 0.265625 -1.453125 0.265625q-0.765625 0 -1.390625 -0.234375q-0.609375 -0.234375 -1.03125 -0.703125q-0.421875 -0.46875 -0.65625 -1.15625q-0.21875 -0.6875 -0.21875 -1.578125q0 -0.84375 0.234375 -1.53125q0.234375 -0.6875 0.671875 -1.1875q0.453125 -0.5 1.09375 -0.765625q0.640625 -0.28125 1.4375 -0.28125q0.78125 0 1.390625 0.25q0.609375 0.234375 1.03125 0.703125q0.4375 0.453125 0.65625 1.140625q0.234375 0.6875 0.234375 1.5625zm-1.28125 0.0625q0 -0.671875 -0.15625 -1.15625q-0.140625 -0.5 -0.421875 -0.828125q-0.265625 -0.34375 -0.65625 -0.5q-0.375 -0.171875 -0.859375 -0.171875q-0.5625 0 -0.96875 0.21875q-0.390625 0.21875 -0.640625 0.578125q-0.25 0.359375 -0.375 0.84375q-0.109375 0.484375 -0.109375 1.015625q0 0.671875 0.140625 1.171875q0.140625 0.5 0.40625 0.828125q0.28125 0.328125 0.671875 0.5q0.390625 0.171875 0.875 0.171875q0.5625 0 0.953125 -0.21875q0.390625 -0.21875 0.640625 -0.578125q0.265625 -0.375 0.375 -0.859375q0.125 -0.484375 0.125 -1.015625zm9.0737 3.59375l-5.875 0l0 -1.15625l2.40625 0l0 -6.828125l-2.25 1.21875l-0.453125 -1.0625l2.96875 -1.5625l1.109375 0l0 8.234375l2.09375 0l0 1.15625z" fill-rule="nonzero"/><path fill="#000000" fill-opacity="0.0" d="m245.40814 470.2139c-4.9053345 0 -8.881897 -2.677948 -8.881897 -5.981415l0 -90.73007c0 -3.3034363 -3.9765625 -5.981415 -8.881882 -5.981415l0 0c4.905319 0 8.881882 -2.6779785 8.881882 -5.981415l0 -90.73007l0 0c0 -3.3034668 3.9765625 -5.981415 8.881897 -5.981415z" fill-rule="evenodd"/><path fill="#000000" fill-opacity="0.0" d="m245.40814 470.2139c-4.9053345 0 -8.881897 -2.677948 -8.881897 -5.981415l0 -90.73007c0 -3.3034363 -3.9765625 -5.981415 -8.881882 -5.981415l0 0c4.905319 0 8.881882 -2.6779785 8.881882 -5.981415l0 -90.73007l0 0c0 -3.3034668 3.9765625 -5.981415 8.881897 -5.981415" fill-rule="evenodd"/><path stroke="#000000" stroke-width="1.0" stroke-linejoin="round" stroke-linecap="butt" d="m245.40814 470.2139c-4.9053345 0 -8.881897 -2.677948 -8.881897 -5.981415l0 -90.73007c0 -3.3034363 -3.9765625 -5.981415 -8.881882 -5.981415l0 0c4.905319 0 8.881882 -2.6779785 8.881882 -5.981415l0 -90.73007l0 0c0 -3.3034668 3.9765625 -5.981415 8.881897 -5.981415" fill-rule="evenodd"/><path fill="#000000" fill-opacity="0.0" d="m198.19554 449.70996l0 -164.37793l29.448822 0l0 164.37793z" fill-rule="evenodd"/><path fill="#000000" d="m209.73433 396.34482l0 2.765625l8.265625 0l0 1.28125l-8.265625 0l0 2.78125l-1.09375 0l0 -6.828125l1.09375 0zm8.265625 -7.66745l0 5.375l-9.359375 0l0 -1.296875l8.265625 0l0 -4.078125l1.09375 0zm-2.796875 -8.276825q0.671875 0 1.1875 0.265625q0.515625 0.25 0.875 0.734375q0.359375 0.484375 0.546875 1.171875q0.1875 0.671875 0.1875 1.515625l0 2.453125l-9.359375 0l0 -2.6875q0 -3.125 2.28125 -3.125q0.765625 0 1.3125 0.359375q0.53125 0.359375 0.796875 1.1875q0.078125 -0.390625 0.25 -0.71875q0.171875 -0.34375 0.453125 -0.59375q0.265625 -0.265625 0.640625 -0.40625q0.359375 -0.15625 0.828125 -0.15625zm-4.109375 1.65625q-0.28125 0 -0.53125 0.09375q-0.265625 0.078125 -0.4375 0.296875q-0.1875 0.203125 -0.296875 0.578125q-0.109375 0.359375 -0.109375 0.921875l0 1.3125l2.921875 0l0 -1.265625q0 -0.4375 -0.078125 -0.796875q-0.09375 -0.359375 -0.28125 -0.609375q-0.203125 -0.25 -0.484375 -0.390625q-0.296875 -0.140625 -0.703125 -0.140625zm4.15625 -0.3125q-0.359375 0 -0.640625 0.15625q-0.296875 0.140625 -0.484375 0.4375q-0.203125 0.28125 -0.3125 0.703125q-0.109375 0.40625 -0.109375 0.921875l0 1.296875l3.21875 0l0 -1.34375q0 -1.09375 -0.40625 -1.625q-0.40625 -0.546875 -1.265625 -0.546875zm2.75 -16.944275l0 5.3125l-9.359375 0l0 -5.3125l1.078125 0l0 4.03125l2.90625 0l0 -3.875l1.0625 0l0 3.875l3.21875 0l0 -4.03125l1.09375 0zm-7.1875 -2.4487l0 -1.109375l1.15625 -0.046875q-0.359375 -0.328125 -0.609375 -0.609375q-0.25 -0.296875 -0.390625 -0.578125q-0.15625 -0.28125 -0.21875 -0.578125q-0.0625 -0.296875 -0.0625 -0.609375q0 -1.109375 0.65625 -1.671875q0.65625 -0.578125 1.96875 -0.578125l4.6875 0l0 1.25l-4.59375 0q-0.84375 0 -1.234375 0.3125q-0.40625 0.3125 -0.40625 0.9375q0 0.234375 0.0625 0.453125q0.0625 0.21875 0.234375 0.453125q0.171875 0.234375 0.453125 0.515625q0.28125 0.265625 0.71875 0.609375l4.765625 0l0 1.25l-7.1875 0zm7.09375 -13.85495q0.09375 0.421875 0.140625 0.875q0.046875 0.453125 0.046875 0.921875q0 1.34375 -0.609375 2.015625q-0.609375 0.65625 -1.875 0.65625l-3.75 0l0 2.015625l-1.046875 0l0 -2.015625l-1.96875 0l-0.328125 -1.234375l2.296875 0l0 -3.234375l1.046875 0l0 3.234375l3.65625 0q0.765625 0 1.15625 -0.40625q0.375 -0.421875 0.375 -1.21875q0 -0.34375 -0.046875 -0.75q-0.0625 -0.40625 -0.171875 -0.859375l1.078125 0zm-7.09375 -2.558075l0 -1.140625l1.328125 -0.03125q-0.765625 -0.640625 -1.109375 -1.25q-0.34375 -0.625 -0.34375 -1.25q0 -1.125 0.71875 -1.703125q0.71875 -0.578125 2.15625 -0.53125l0 1.265625q-0.953125 -0.03125 -1.375 0.265625q-0.421875 0.296875 -0.421875 0.875q0 0.25 0.09375 0.515625q0.078125 0.25 0.28125 0.515625q0.1875 0.265625 0.5 0.5625q0.3125 0.296875 0.75 0.640625l4.609375 0l0 1.265625l-7.1875 0zm0 -14.151825l6.421875 2.4375q0.984375 0.390625 1.6875 0.796875q0.71875 0.390625 1.171875 0.875q0.453125 0.484375 0.671875 1.0625q0.21875 0.5625 0.21875 1.265625q0 0.1875 -0.015625 0.34375q0 0.15625 -0.015625 0.328125l-1.140625 0q0.03125 -0.15625 0.046875 -0.34375q0.015625 -0.1875 0.015625 -0.390625q0 -0.34375 -0.109375 -0.640625q-0.09375 -0.296875 -0.328125 -0.5625q-0.21875 -0.265625 -0.578125 -0.5q-0.34375 -0.25 -0.859375 -0.484375l-7.1875 2.875l0 -1.421875l4.75 -1.8125l1.125 -0.375l-1.15625 -0.40625l-4.71875 -1.6875l0 -1.359375z" fill-rule="nonzero"/><path fill="#000000" fill-opacity="0.0" d="m379.57874 335.54724l41.259857 0l0 22.677155l-41.259857 0z" fill-rule="evenodd"/><path stroke="#000000" stroke-width="1.0" stroke-linejoin="round" stroke-linecap="butt" d="m379.57874 335.54724l41.259857 0l0 22.677155l-41.259857 0z" fill-rule="evenodd"/><path fill="#000000" d="m392.07687 351.96582l-1.390625 0l-0.640625 -2.046875l-3.90625 0l-0.65625 2.046875l-1.3125 0l3.09375 -9.359375l1.75 0l3.0625 9.359375zm-2.40625 -3.171875l-1.578125 -5.015625l-1.578125 5.015625l3.15625 0zm9.620575 0.640625q0 0.65625 -0.28125 1.171875q-0.265625 0.5 -0.75 0.828125q-0.484375 0.328125 -1.171875 0.5q-0.6875 0.15625 -1.515625 0.15625q-0.359375 0 -0.734375 -0.03125q-0.375 -0.015625 -0.71875 -0.0625q-0.328125 -0.046875 -0.640625 -0.09375q-0.296875 -0.0625 -0.53125 -0.125l0 -1.234375q0.53125 0.203125 1.203125 0.3125q0.671875 0.109375 1.515625 0.109375q0.625 0 1.046875 -0.09375q0.4375 -0.09375 0.703125 -0.28125q0.28125 -0.1875 0.40625 -0.453125q0.125 -0.28125 0.125 -0.640625q0 -0.375 -0.21875 -0.640625q-0.203125 -0.265625 -0.546875 -0.46875q-0.34375 -0.21875 -0.78125 -0.390625q-0.4375 -0.1875 -0.90625 -0.359375q-0.453125 -0.1875 -0.890625 -0.40625q-0.4375 -0.21875 -0.78125 -0.515625q-0.34375 -0.296875 -0.5625 -0.703125q-0.203125 -0.40625 -0.203125 -0.953125q0 -0.484375 0.203125 -0.9375q0.203125 -0.46875 0.625 -0.828125q0.421875 -0.359375 1.078125 -0.578125q0.671875 -0.234375 1.578125 -0.234375q0.234375 0 0.515625 0.03125q0.28125 0.015625 0.5625 0.0625q0.28125 0.03125 0.546875 0.078125q0.28125 0.046875 0.515625 0.109375l0 1.140625q-0.546875 -0.15625 -1.109375 -0.234375q-0.546875 -0.078125 -1.0625 -0.078125q-1.09375 0 -1.609375 0.359375q-0.515625 0.359375 -0.515625 0.984375q0 0.375 0.203125 0.65625q0.21875 0.265625 0.5625 0.484375q0.34375 0.203125 0.78125 0.390625q0.453125 0.171875 0.90625 0.359375q0.453125 0.1875 0.890625 0.40625q0.453125 0.21875 0.796875 0.53125q0.34375 0.296875 0.546875 0.703125q0.21875 0.40625 0.21875 0.96875zm4.308075 -5.75l-2.15625 0l0 -1.078125l5.59375 0l0 1.078125l-2.15625 0l0 7.1875l2.15625 0l0 1.09375l-5.59375 0l0 -1.09375l2.15625 0l0 -7.1875zm12.1987 3.5q0 0.671875 -0.109375 1.296875q-0.09375 0.609375 -0.328125 1.140625q-0.21875 0.53125 -0.59375 0.96875q-0.359375 0.421875 -0.890625 0.734375q-0.53125 0.296875 -1.234375 0.46875q-0.703125 0.171875 -1.59375 0.171875l-2.0 0l0 -9.359375l2.40625 0q2.1875 0 3.265625 1.140625q1.078125 1.125 1.078125 3.4375zm-1.328125 0.09375q0 -1.0 -0.1875 -1.6875q-0.1875 -0.6875 -0.578125 -1.109375q-0.375 -0.421875 -0.953125 -0.609375q-0.5625 -0.1875 -1.328125 -0.1875l-1.109375 0l0 7.171875l0.953125 0q3.203125 0 3.203125 -3.578125z" fill-rule="nonzero"/><path fill="#000000" fill-opacity="0.0" d="m315.57874 391.54724l56.944885 0l0 22.677155l-56.944885 0z" fill-rule="evenodd"/><path stroke="#000000" stroke-width="1.0" stroke-linejoin="round" stroke-linecap="butt" d="m315.57874 391.54724l56.944885 0l0 22.677155l-56.944885 0z" fill-rule="evenodd"/><path fill="#000000" d="m339.2297 401.48145q0 0.5625 -0.21875 1.125q-0.203125 0.5625 -0.65625 1.015625q-0.453125 0.4375 -1.15625 0.71875q-0.703125 0.265625 -1.671875 0.265625l-1.15625 0l0 3.359375l-1.28125 0l0 -9.359375l2.640625 0q0.6875 0 1.328125 0.15625q0.640625 0.15625 1.125 0.5q0.484375 0.34375 0.765625 0.890625q0.28125 0.546875 0.28125 1.328125zm-1.3125 0.046875q0 -0.890625 -0.59375 -1.375q-0.59375 -0.484375 -1.65625 -0.484375l-1.296875 0l0 3.859375l1.1875 0q1.125 0 1.734375 -0.5q0.625 -0.5 0.625 -1.5zm8.839325 -1.828125l-3.96875 0l0 3.03125l3.765625 0l0 1.0625l-3.765625 0l0 4.171875l-1.296875 0l0 -9.359375l5.265625 0l0 1.09375zm8.54245 8.265625l-1.671875 0l-2.71875 -5.828125l-0.78125 -1.875l0 4.71875l0 2.984375l-1.1875 0l0 -9.359375l1.625 0l2.609375 5.53125l0.9375 2.140625l0 -5.015625l0 -2.65625l1.1875 0l0 9.359375z" fill-rule="nonzero"/><path fill="#000000" fill-opacity="0.0" d="m315.57874 447.54724l56.944885 0l0 22.677155l-56.944885 0z" fill-rule="evenodd"/><path stroke="#000000" stroke-width="1.0" stroke-linejoin="round" stroke-linecap="butt" d="m315.57874 447.54724l56.944885 0l0 22.677155l-56.944885 0z" fill-rule="evenodd"/><path fill="#000000" d="m339.2297 457.48145q0 0.5625 -0.21875 1.125q-0.203125 0.5625 -0.65625 1.015625q-0.453125 0.4375 -1.15625 0.71875q-0.703125 0.265625 -1.671875 0.265625l-1.15625 0l0 3.359375l-1.28125 0l0 -9.359375l2.640625 0q0.6875 0 1.328125 0.15625q0.640625 0.15625 1.125 0.5q0.484375 0.34375 0.765625 0.890625q0.28125 0.546875 0.28125 1.328125zm-1.3125 0.046875q0 -0.890625 -0.59375 -1.375q-0.59375 -0.484375 -1.65625 -0.484375l-1.296875 0l0 3.859375l1.1875 0q1.125 0 1.734375 -0.5q0.625 -0.5 0.625 -1.5zm8.839325 -1.828125l-3.96875 0l0 3.03125l3.765625 0l0 1.0625l-3.765625 0l0 4.171875l-1.296875 0l0 -9.359375l5.265625 0l0 1.09375zm8.54245 8.265625l-1.671875 0l-2.71875 -5.828125l-0.78125 -1.875l0 4.71875l0 2.984375l-1.1875 0l0 -9.359375l1.625 0l2.609375 5.53125l0.9375 2.140625l0 -5.015625l0 -2.65625l1.1875 0l0 9.359375z" fill-rule="nonzero"/><path fill="#000000" fill-opacity="0.0" d="m305.0643 335.54724l67.77954 0l0 22.677155l-67.77954 0z" fill-rule="evenodd"/><path stroke="#000000" stroke-width="1.0" stroke-linejoin="round" stroke-linecap="butt" d="m305.0643 335.54724l67.77954 0l0 22.677155l-67.77954 0z" fill-rule="evenodd"/><path fill="#000000" d="m330.86917 342.60645l-3.171875 9.359375l-1.71875 0l-3.109375 -9.359375l1.4375 0l2.015625 6.3125l0.578125 1.84375l0.578125 -1.84375l2.03125 -6.3125l1.359375 0zm7.29245 2.875q0 0.5625 -0.21875 1.125q-0.203125 0.5625 -0.65625 1.015625q-0.453125 0.4375 -1.15625 0.71875q-0.703125 0.265625 -1.671875 0.265625l-1.15625 0l0 3.359375l-1.28125 0l0 -9.359375l2.640625 0q0.6875 0 1.328125 0.15625q0.640625 0.15625 1.125 0.5q0.484375 0.34375 0.765625 0.890625q0.28125 0.546875 0.28125 1.328125zm-1.3125 0.046875q0 -0.890625 -0.59375 -1.375q-0.59375 -0.484375 -1.65625 -0.484375l-1.296875 0l0 3.859375l1.1875 0q1.125 0 1.734375 -0.5q0.625 -0.5 0.625 -1.5zm9.3237 6.4375l-1.671875 0l-2.71875 -5.828125l-0.78125 -1.875l0 4.71875l0 2.984375l-1.1875 0l0 -9.359375l1.625 0l2.609375 5.53125l0.9375 2.140625l0 -5.015625l0 -2.65625l1.1875 0l0 9.359375zm8.058075 0l-6.171875 0l0 -1.109375l2.421875 -2.40625q0.59375 -0.59375 0.96875 -1.015625q0.375 -0.4375 0.578125 -0.78125q0.203125 -0.359375 0.28125 -0.671875q0.078125 -0.328125 0.078125 -0.6875q0 -0.34375 -0.09375 -0.65625q-0.09375 -0.3125 -0.296875 -0.546875q-0.1875 -0.234375 -0.5 -0.359375q-0.3125 -0.140625 -0.734375 -0.140625q-0.59375 0 -1.078125 0.265625q-0.484375 0.265625 -0.890625 0.6875l-0.6875 -0.828125q0.53125 -0.5625 1.21875 -0.890625q0.6875 -0.34375 1.609375 -0.34375q0.609375 0 1.125 0.1875q0.515625 0.1875 0.890625 0.546875q0.375 0.34375 0.578125 0.859375q0.203125 0.5 0.203125 1.140625q0 0.53125 -0.15625 1.0q-0.140625 0.453125 -0.4375 0.90625q-0.28125 0.453125 -0.71875 0.9375q-0.4375 0.484375 -1.046875 1.0625l-1.6875 1.65625l4.546875 0l0 1.1875z" fill-rule="nonzero"/><path fill="#000000" fill-opacity="0.0" d="m584.458 223.54724l164.37793 0l0 22.67717l-164.37793 0z" fill-rule="evenodd"/><path stroke="#000000" stroke-width="1.0" stroke-linejoin="round" stroke-linecap="butt" d="m584.458 223.54724l164.37793 0l0 22.67717l-164.37793 0z" fill-rule="evenodd"/><path fill="#000000" d="m614.2427 230.60645l-3.171875 9.359375l-1.71875 0l-3.109375 -9.359375l1.4375 0l2.015625 6.3125l0.578125 1.84375l0.578125 -1.84375l2.03125 -6.3125l1.359375 0zm3.6205444 3.203125l-2.125 0l0 -1.03125l3.390625 0l0 6.15625l2.125 0l0 1.03125l-5.75 0l0 -1.03125l2.359375 0l0 -5.125zm0.4375 -4.046875q0.203125 0 0.375 0.078125q0.1875 0.078125 0.3125 0.21875q0.140625 0.125 0.21875 0.3125q0.078125 0.171875 0.078125 0.375q0 0.203125 -0.078125 0.390625q-0.078125 0.171875 -0.21875 0.3125q-0.125 0.125 -0.3125 0.203125q-0.171875 0.078125 -0.375 0.078125q-0.203125 0 -0.390625 -0.078125q-0.171875 -0.078125 -0.3125 -0.203125q-0.125 -0.140625 -0.203125 -0.3125q-0.078125 -0.1875 -0.078125 -0.390625q0 -0.203125 0.078125 -0.375q0.078125 -0.1875 0.203125 -0.3125q0.140625 -0.140625 0.3125 -0.21875q0.1875 -0.078125 0.390625 -0.078125zm5.4643555 3.015625l1.140625 0l0.03125 1.328125q0.640625 -0.765625 1.25 -1.109375q0.625 -0.34375 1.25 -0.34375q1.125 0 1.703125 0.71875q0.578125 0.71875 0.53125 2.15625l-1.265625 0q0.03125 -0.953125 -0.265625 -1.375q-0.296875 -0.421875 -0.875 -0.421875q-0.25 0 -0.515625 0.09375q-0.25 0.078125 -0.515625 0.28125q-0.265625 0.1875 -0.5625 0.5q-0.296875 0.3125 -0.640625 0.75l0 4.609375l-1.265625 0l0 -7.1875zm13.558044 7.09375q-0.421875 0.09375 -0.875 0.140625q-0.453125 0.046875 -0.921875 0.046875q-1.34375 0 -2.015625 -0.609375q-0.65625 -0.609375 -0.65625 -1.875l0 -3.75l-2.015625 0l0 -1.046875l2.015625 0l0 -1.96875l1.234375 -0.328125l0 2.296875l3.234375 0l0 1.046875l-3.234375 0l0 3.65625q0 0.765625 0.40625 1.15625q0.421875 0.375 1.21875 0.375q0.34375 0 0.75 -0.046875q0.40625 -0.0625 0.859375 -0.171875l0 1.078125zm8.04248 0.09375l-1.125 0l-0.03125 -1.15625q-0.328125 0.375 -0.625 0.625q-0.28125 0.234375 -0.578125 0.390625q-0.28125 0.140625 -0.578125 0.203125q-0.28125 0.0625 -0.59375 0.0625q-1.109375 0 -1.6875 -0.640625q-0.5625 -0.65625 -0.5625 -1.96875l0 -4.703125l1.25 0l0 4.59375q0 1.65625 1.25 1.65625q0.21875 0 0.4375 -0.0625q0.21875 -0.078125 0.453125 -0.234375q0.25 -0.171875 0.515625 -0.453125q0.28125 -0.296875 0.625 -0.734375l0 -4.765625l1.25 0l0 7.1875zm6.9017944 0l-0.03125 -0.96875q-0.59375 0.578125 -1.203125 0.84375q-0.59375 0.25 -1.265625 0.25q-0.609375 0 -1.046875 -0.15625q-0.4375 -0.15625 -0.71875 -0.421875q-0.28125 -0.28125 -0.421875 -0.65625q-0.125 -0.375 -0.125 -0.8125q0 -1.078125 0.796875 -1.6875q0.8125 -0.609375 2.390625 -0.609375l1.484375 0l0 -0.640625q0 -0.625 -0.40625 -1.0q-0.40625 -0.390625 -1.25 -0.390625q-0.609375 0 -1.203125 0.140625q-0.578125 0.125 -1.21875 0.375l0 -1.125q0.25 -0.078125 0.53125 -0.15625q0.296875 -0.09375 0.609375 -0.15625q0.328125 -0.0625 0.671875 -0.09375q0.359375 -0.046875 0.71875 -0.046875q0.640625 0 1.15625 0.140625q0.53125 0.140625 0.890625 0.4375q0.359375 0.296875 0.546875 0.75q0.203125 0.4375 0.203125 1.03125l0 4.953125l-1.109375 0zm-0.140625 -3.265625l-1.578125 0q-0.46875 0 -0.8125 0.09375q-0.328125 0.09375 -0.546875 0.265625q-0.21875 0.171875 -0.328125 0.40625q-0.09375 0.234375 -0.09375 0.546875q0 0.203125 0.0625 0.390625q0.0625 0.1875 0.203125 0.34375q0.15625 0.140625 0.375 0.234375q0.234375 0.078125 0.5625 0.078125q0.4375 0 0.984375 -0.265625q0.5625 -0.265625 1.171875 -0.828125l0 -1.265625zm6.0268555 -5.828125l-2.125 0l0 -1.015625l3.390625 0l0 9.078125l2.125 0l0 1.03125l-5.75 0l0 -1.03125l2.359375 0l0 -8.0625zm20.506775 9.09375l-1.390625 0l-0.640625 -2.046875l-3.90625 0l-0.65625 2.046875l-1.3125 0l3.09375 -9.359375l1.75 0l3.0625 9.359375zm-2.40625 -3.171875l-1.578125 -5.015625l-1.578125 5.015625l3.15625 0zm3.2611694 -0.265625q0 -0.921875 0.25 -1.625q0.25 -0.71875 0.703125 -1.203125q0.46875 -0.5 1.109375 -0.75q0.65625 -0.25 1.453125 -0.25q0.34375 0 0.671875 0.046875q0.328125 0.03125 0.65625 0.125l0 -3.015625l1.25 0l0 10.109375l-1.109375 0l-0.046875 -1.359375q-0.515625 0.765625 -1.125 1.125q-0.609375 0.359375 -1.328125 0.359375q-0.609375 0 -1.078125 -0.25q-0.46875 -0.265625 -0.78125 -0.734375q-0.3125 -0.46875 -0.46875 -1.125q-0.15625 -0.65625 -0.15625 -1.453125zm1.265625 -0.078125q0 1.296875 0.375 1.9375q0.390625 0.640625 1.09375 0.640625q0.484375 0 1.0 -0.421875q0.53125 -0.421875 1.109375 -1.25l0 -3.34375q-0.3125 -0.140625 -0.6875 -0.203125q-0.359375 -0.078125 -0.734375 -0.078125q-1.015625 0 -1.59375 0.65625q-0.5625 0.65625 -0.5625 2.0625zm6.7924805 0.078125q0 -0.921875 0.25 -1.625q0.25 -0.71875 0.703125 -1.203125q0.46875 -0.5 1.109375 -0.75q0.65625 -0.25 1.453125 -0.25q0.34375 0 0.671875 0.046875q0.328125 0.03125 0.65625 0.125l0 -3.015625l1.25 0l0 10.109375l-1.109375 0l-0.046875 -1.359375q-0.515625 0.765625 -1.125 1.125q-0.609375 0.359375 -1.328125 0.359375q-0.609375 0 -1.078125 -0.25q-0.46875 -0.265625 -0.78125 -0.734375q-0.3125 -0.46875 -0.46875 -1.125q-0.15625 -0.65625 -0.15625 -1.453125zm1.265625 -0.078125q0 1.296875 0.375 1.9375q0.390625 0.640625 1.09375 0.640625q0.484375 0 1.0 -0.421875q0.53125 -0.421875 1.109375 -1.25l0 -3.34375q-0.3125 -0.140625 -0.6875 -0.203125q-0.359375 -0.078125 -0.734375 -0.078125q-1.015625 0 -1.59375 0.65625q-0.5625 0.65625 -0.5625 2.0625zm7.4486694 -3.671875l1.140625 0l0.03125 1.328125q0.640625 -0.765625 1.25 -1.109375q0.625 -0.34375 1.25 -0.34375q1.125 0 1.703125 0.71875q0.578125 0.71875 0.53125 2.15625l-1.265625 0q0.03125 -0.953125 -0.265625 -1.375q-0.296875 -0.421875 -0.875 -0.421875q-0.25 0 -0.515625 0.09375q-0.25 0.078125 -0.515625 0.28125q-0.265625 0.1875 -0.5625 0.5q-0.296875 0.3125 -0.640625 0.75l0 4.609375l-1.265625 0l0 -7.1875zm13.839355 3.21875q0 0.265625 -0.015625 0.453125q0 0.171875 -0.015625 0.328125l-5.046875 0q0 1.09375 0.609375 1.6875q0.625 0.59375 1.78125 0.59375q0.3125 0 0.625 -0.015625q0.3125 -0.03125 0.609375 -0.078125q0.296875 -0.046875 0.5625 -0.09375q0.265625 -0.0625 0.5 -0.125l0 1.03125q-0.515625 0.140625 -1.15625 0.21875q-0.640625 0.09375 -1.328125 0.09375q-0.921875 0 -1.59375 -0.25q-0.65625 -0.25 -1.078125 -0.71875q-0.421875 -0.484375 -0.625 -1.171875q-0.203125 -0.6875 -0.203125 -1.5625q0 -0.765625 0.21875 -1.4375q0.21875 -0.671875 0.625 -1.1875q0.421875 -0.515625 1.03125 -0.8125q0.609375 -0.296875 1.375 -0.296875q0.765625 0 1.34375 0.234375q0.578125 0.234375 0.96875 0.671875q0.40625 0.4375 0.609375 1.0625q0.203125 0.609375 0.203125 1.375zm-1.296875 -0.1875q0.015625 -0.46875 -0.109375 -0.859375q-0.109375 -0.40625 -0.34375 -0.6875q-0.234375 -0.296875 -0.59375 -0.453125q-0.359375 -0.15625 -0.828125 -0.15625q-0.40625 0 -0.75 0.15625q-0.328125 0.15625 -0.578125 0.4375q-0.25 0.28125 -0.40625 0.6875q-0.140625 0.40625 -0.171875 0.875l3.78125 0zm8.964294 2.203125q0 0.375 -0.125 0.671875q-0.125 0.296875 -0.34375 0.53125q-0.21875 0.234375 -0.515625 0.40625q-0.296875 0.15625 -0.640625 0.265625q-0.328125 0.109375 -0.6875 0.15625q-0.34375 0.046875 -0.671875 0.046875q-0.734375 0 -1.34375 -0.0625q-0.609375 -0.0625 -1.203125 -0.203125l0 -1.140625q0.640625 0.171875 1.25 0.265625q0.625 0.09375 1.25 0.09375q0.890625 0 1.3125 -0.234375q0.4375 -0.25 0.4375 -0.703125q0 -0.1875 -0.078125 -0.34375q-0.0625 -0.15625 -0.25 -0.296875q-0.171875 -0.140625 -0.546875 -0.28125q-0.375 -0.15625 -1.015625 -0.359375q-0.5 -0.140625 -0.90625 -0.3125q-0.40625 -0.1875 -0.71875 -0.4375q-0.296875 -0.25 -0.46875 -0.578125q-0.171875 -0.34375 -0.171875 -0.8125q0 -0.296875 0.140625 -0.65625q0.140625 -0.359375 0.46875 -0.65625q0.34375 -0.3125 0.921875 -0.515625q0.578125 -0.203125 1.421875 -0.203125q0.421875 0 0.9375 0.046875q0.515625 0.046875 1.078125 0.15625l0 1.109375q-0.578125 -0.140625 -1.109375 -0.203125q-0.53125 -0.078125 -0.90625 -0.078125q-0.46875 0 -0.796875 0.078125q-0.3125 0.0625 -0.515625 0.203125q-0.1875 0.125 -0.28125 0.296875q-0.078125 0.15625 -0.078125 0.34375q0 0.203125 0.0625 0.359375q0.078125 0.15625 0.28125 0.3125q0.21875 0.140625 0.578125 0.28125q0.359375 0.140625 0.953125 0.3125q0.640625 0.1875 1.0625 0.390625q0.4375 0.203125 0.703125 0.46875q0.28125 0.25 0.390625 0.5625q0.125 0.3125 0.125 0.71875zm8.058105 0q0 0.375 -0.125 0.671875q-0.125 0.296875 -0.34375 0.53125q-0.21875 0.234375 -0.515625 0.40625q-0.296875 0.15625 -0.640625 0.265625q-0.328125 0.109375 -0.6875 0.15625q-0.34375 0.046875 -0.671875 0.046875q-0.734375 0 -1.34375 -0.0625q-0.609375 -0.0625 -1.203125 -0.203125l0 -1.140625q0.640625 0.171875 1.25 0.265625q0.625 0.09375 1.25 0.09375q0.890625 0 1.3125 -0.234375q0.4375 -0.25 0.4375 -0.703125q0 -0.1875 -0.078125 -0.34375q-0.0625 -0.15625 -0.25 -0.296875q-0.171875 -0.140625 -0.546875 -0.28125q-0.375 -0.15625 -1.015625 -0.359375q-0.5 -0.140625 -0.90625 -0.3125q-0.40625 -0.1875 -0.71875 -0.4375q-0.296875 -0.25 -0.46875 -0.578125q-0.171875 -0.34375 -0.171875 -0.8125q0 -0.296875 0.140625 -0.65625q0.140625 -0.359375 0.46875 -0.65625q0.34375 -0.3125 0.921875 -0.515625q0.578125 -0.203125 1.421875 -0.203125q0.421875 0 0.9375 0.046875q0.515625 0.046875 1.078125 0.15625l0 1.109375q-0.578125 -0.140625 -1.109375 -0.203125q-0.53125 -0.078125 -0.90625 -0.078125q-0.46875 0 -0.796875 0.078125q-0.3125 0.0625 -0.515625 0.203125q-0.1875 0.125 -0.28125 0.296875q-0.078125 0.15625 -0.078125 0.34375q0 0.203125 0.0625 0.359375q0.078125 0.15625 0.28125 0.3125q0.21875 0.140625 0.578125 0.28125q0.359375 0.140625 0.953125 0.3125q0.640625 0.1875 1.0625 0.390625q0.4375 0.203125 0.703125 0.46875q0.28125 0.25 0.390625 0.5625q0.125 0.3125 0.125 0.71875z" fill-rule="nonzero"/><path fill="#000000" fill-opacity="0.0" d="m499.57874 223.54724l41.259827 0l0 22.67717l-41.259827 0z" fill-rule="evenodd"/><path stroke="#000000" stroke-width="1.0" stroke-linejoin="round" stroke-linecap="butt" d="m499.57874 223.54724l41.259827 0l0 22.67717l-41.259827 0z" fill-rule="evenodd"/><path fill="#000000" d="m512.0769 239.96582l-1.3906555 0l-0.640625 -2.046875l-3.90625 0l-0.65625 2.046875l-1.3125 0l3.09375 -9.359375l1.75 0l3.0625305 9.359375zm-2.4062805 -3.171875l-1.578125 -5.015625l-1.578125 5.015625l3.15625 0zm9.620575 0.640625q0 0.65625 -0.28125 1.171875q-0.265625 0.5 -0.75 0.828125q-0.484375 0.328125 -1.171875 0.5q-0.6875 0.15625 -1.515625 0.15625q-0.359375 0 -0.734375 -0.03125q-0.375 -0.015625 -0.71875 -0.0625q-0.328125 -0.046875 -0.640625 -0.09375q-0.296875 -0.0625 -0.53125 -0.125l0 -1.234375q0.53125 0.203125 1.203125 0.3125q0.671875 0.109375 1.515625 0.109375q0.625 0 1.046875 -0.09375q0.4375 -0.09375 0.703125 -0.28125q0.28125 -0.1875 0.40625 -0.453125q0.125 -0.28125 0.125 -0.640625q0 -0.375 -0.21875 -0.640625q-0.203125 -0.265625 -0.546875 -0.46875q-0.34375 -0.21875 -0.78125 -0.390625q-0.4375 -0.1875 -0.90625 -0.359375q-0.453125 -0.1875 -0.890625 -0.40625q-0.4375 -0.21875 -0.78125 -0.515625q-0.34375 -0.296875 -0.5625 -0.703125q-0.203125 -0.40625 -0.203125 -0.953125q0 -0.484375 0.203125 -0.9375q0.203125 -0.46875 0.625 -0.828125q0.421875 -0.359375 1.078125 -0.578125q0.671875 -0.234375 1.578125 -0.234375q0.234375 0 0.515625 0.03125q0.28125 0.015625 0.5625 0.0625q0.28125 0.03125 0.546875 0.078125q0.28125 0.046875 0.515625 0.109375l0 1.140625q-0.546875 -0.15625 -1.109375 -0.234375q-0.546875 -0.078125 -1.0625 -0.078125q-1.09375 0 -1.609375 0.359375q-0.515625 0.359375 -0.515625 0.984375q0 0.375 0.203125 0.65625q0.21875 0.265625 0.5625 0.484375q0.34375 0.203125 0.78125 0.390625q0.453125 0.171875 0.90625 0.359375q0.453125 0.1875 0.890625 0.40625q0.453125 0.21875 0.796875 0.53125q0.34375 0.296875 0.546875 0.703125q0.21875 0.40625 0.21875 0.96875zm4.3081055 -5.75l-2.15625 0l0 -1.078125l5.59375 0l0 1.078125l-2.15625 0l0 7.1875l2.15625 0l0 1.09375l-5.59375 0l0 -1.09375l2.15625 0l0 -7.1875zm12.198669 3.5q0 0.671875 -0.109375 1.296875q-0.09375 0.609375 -0.328125 1.140625q-0.21875 0.53125 -0.59375 0.96875q-0.359375 0.421875 -0.890625 0.734375q-0.53125 0.296875 -1.234375 0.46875q-0.703125 0.171875 -1.59375 0.171875l-2.0 0l0 -9.359375l2.40625 0q2.1875 0 3.265625 1.140625q1.078125 1.125 1.078125 3.4375zm-1.328125 0.09375q0 -1.0 -0.1875 -1.6875q-0.1875 -0.6875 -0.578125 -1.109375q-0.375 -0.421875 -0.953125 -0.609375q-0.5625 -0.1875 -1.328125 -0.1875l-1.109375 0l0 7.171875l0.953125 0q3.203125 0 3.203125 -3.578125z" fill-rule="nonzero"/><path fill="#000000" fill-opacity="0.0" d="m735.1903 202.07217l26.614136 0l0 24.724411l-26.614136 0z" fill-rule="evenodd"/><path fill="#000000" d="m751.58344 214.98439q0 0.96875 -0.203125 1.78125q-0.1875 0.796875 -0.578125 1.375q-0.390625 0.578125 -0.984375 0.890625q-0.59375 0.3125 -1.390625 0.3125q-0.671875 0 -1.234375 -0.25q-0.5625 -0.25 -0.96875 -0.78125q-0.390625 -0.546875 -0.609375 -1.375q-0.203125 -0.828125 -0.203125 -1.953125q0 -0.96875 0.1875 -1.78125q0.203125 -0.8125 0.59375 -1.375q0.390625 -0.578125 0.984375 -0.890625q0.59375 -0.328125 1.390625 -0.328125q0.671875 0 1.234375 0.265625q0.5625 0.25 0.953125 0.796875q0.40625 0.53125 0.609375 1.359375q0.21875 0.828125 0.21875 1.953125zm-1.140625 0.046875q0 -0.234375 -0.015625 -0.453125q-0.015625 -0.21875 -0.03125 -0.421875l-3.609375 2.671875q0.109375 0.34375 0.25 0.640625q0.15625 0.28125 0.359375 0.484375q0.21875 0.203125 0.484375 0.3125q0.265625 0.109375 0.609375 0.109375q0.453125 0 0.8125 -0.203125q0.359375 -0.21875 0.609375 -0.640625q0.265625 -0.421875 0.390625 -1.046875q0.140625 -0.640625 0.140625 -1.453125zm-3.890625 -0.078125q0 0.1875 0 0.390625q0 0.203125 0.03125 0.390625l3.59375 -2.65625q-0.09375 -0.328125 -0.25 -0.59375q-0.140625 -0.28125 -0.359375 -0.484375q-0.203125 -0.203125 -0.46875 -0.3125q-0.265625 -0.109375 -0.609375 -0.109375q-0.4375 0 -0.796875 0.21875q-0.359375 0.21875 -0.625 0.640625q-0.25 0.421875 -0.390625 1.0625q-0.125 0.625 -0.125 1.453125z" fill-rule="nonzero"/><path fill="#000000" fill-opacity="0.0" d="m564.1903 202.07217l41.259827 0l0 24.724411l-41.259827 0z" fill-rule="evenodd"/><path fill="#000000" d="m584.16425 216.54689q0 0.578125 -0.21875 1.09375q-0.21875 0.515625 -0.609375 0.90625q-0.390625 0.375 -0.9375 0.59375q-0.546875 0.203125 -1.21875 0.203125q-0.703125 0 -1.25 -0.21875q-0.53125 -0.21875 -0.90625 -0.6875q-0.359375 -0.46875 -0.546875 -1.171875q-0.1875 -0.71875 -0.1875 -1.6875q0 -0.640625 0.078125 -1.25q0.09375 -0.625 0.28125 -1.15625q0.203125 -0.546875 0.53125 -0.984375q0.328125 -0.453125 0.8125 -0.765625q0.484375 -0.328125 1.140625 -0.5q0.65625 -0.1875 1.515625 -0.1875l0.84375 0l0 0.984375l-0.90625 0q-0.765625 0 -1.328125 0.1875q-0.5625 0.171875 -0.9375 0.515625q-0.375 0.328125 -0.578125 0.796875q-0.203125 0.46875 -0.25 1.046875l-0.03125 0.265625q0.40625 -0.25 0.9375 -0.390625q0.546875 -0.140625 1.171875 -0.140625q0.640625 0 1.125 0.1875q0.484375 0.1875 0.8125 0.53125q0.328125 0.328125 0.484375 0.796875q0.171875 0.46875 0.171875 1.03125zm-1.1875 0.0625q0 -0.390625 -0.09375 -0.703125q-0.09375 -0.3125 -0.296875 -0.53125q-0.203125 -0.21875 -0.515625 -0.34375q-0.3125 -0.125 -0.734375 -0.125q-0.25 0 -0.515625 0.046875q-0.25 0.046875 -0.5 0.140625q-0.234375 0.078125 -0.453125 0.1875q-0.21875 0.09375 -0.40625 0.21875q0 0.828125 0.109375 1.390625q0.125 0.5625 0.359375 0.90625q0.234375 0.34375 0.5625 0.484375q0.34375 0.140625 0.78125 0.140625q0.375 0 0.6875 -0.109375q0.3125 -0.125 0.53125 -0.359375q0.21875 -0.234375 0.34375 -0.5625q0.140625 -0.34375 0.140625 -0.78125zm8.23407 0.046875q0 0.546875 -0.234375 1.046875q-0.21875 0.484375 -0.671875 0.859375q-0.453125 0.359375 -1.140625 0.578125q-0.6875 0.203125 -1.609375 0.203125q-0.515625 0 -0.921875 -0.03125q-0.390625 -0.03125 -0.75 -0.078125l0 -1.015625q0.40625 0.078125 0.859375 0.125q0.453125 0.03125 0.921875 0.03125q0.625 0 1.078125 -0.109375q0.453125 -0.125 0.734375 -0.328125q0.296875 -0.21875 0.421875 -0.53125q0.140625 -0.3125 0.140625 -0.6875q0 -0.359375 -0.15625 -0.609375q-0.15625 -0.265625 -0.453125 -0.4375q-0.28125 -0.171875 -0.671875 -0.265625q-0.390625 -0.09375 -0.859375 -0.09375l-0.96875 0l0 -0.921875l0.984375 0q0.375 0 0.6875 -0.09375q0.328125 -0.109375 0.546875 -0.296875q0.234375 -0.1875 0.34375 -0.46875q0.125 -0.28125 0.125 -0.625q0 -0.6875 -0.421875 -1.0q-0.40625 -0.3125 -1.21875 -0.3125q-0.421875 0 -0.890625 0.09375q-0.453125 0.078125 -0.96875 0.25l0 -1.0q0.21875 -0.078125 0.46875 -0.140625q0.25 -0.0625 0.5 -0.09375q0.25 -0.046875 0.5 -0.0625q0.25 -0.03125 0.46875 -0.03125q0.6875 0 1.203125 0.15625q0.515625 0.140625 0.859375 0.421875q0.34375 0.265625 0.515625 0.65625q0.171875 0.390625 0.171875 0.875q0 0.734375 -0.375 1.234375q-0.375 0.484375 -1.015625 0.78125q0.328125 0.046875 0.640625 0.203125q0.328125 0.15625 0.578125 0.40625q0.265625 0.234375 0.421875 0.578125q0.15625 0.328125 0.15625 0.734375z" fill-rule="nonzero"/><path fill="#000000" fill-opacity="0.0" d="m527.1903 202.07217l26.614136 0l0 24.724411l-26.614136 0z" fill-rule="evenodd"/><path fill="#000000" d="m543.58344 214.98439q0 0.96875 -0.203125 1.78125q-0.1875 0.796875 -0.578125 1.375q-0.390625 0.578125 -0.984375 0.890625q-0.59375 0.3125 -1.390625 0.3125q-0.671875 0 -1.234375 -0.25q-0.5625 -0.25 -0.96875 -0.78125q-0.390625 -0.546875 -0.609375 -1.375q-0.203125 -0.828125 -0.203125 -1.953125q0 -0.96875 0.1875 -1.78125q0.203125 -0.8125 0.59375 -1.375q0.390625 -0.578125 0.984375 -0.890625q0.59375 -0.328125 1.390625 -0.328125q0.671875 0 1.234375 0.265625q0.5625 0.25 0.953125 0.796875q0.40625 0.53125 0.609375 1.359375q0.21875 0.828125 0.21875 1.953125zm-1.140625 0.046875q0 -0.234375 -0.015625 -0.453125q-0.015625 -0.21875 -0.03125 -0.421875l-3.609375 2.671875q0.109375 0.34375 0.25 0.640625q0.15625 0.28125 0.359375 0.484375q0.21875 0.203125 0.484375 0.3125q0.265625 0.109375 0.609375 0.109375q0.453125 0 0.8125 -0.203125q0.359375 -0.21875 0.609375 -0.640625q0.265625 -0.421875 0.390625 -1.046875q0.140625 -0.640625 0.140625 -1.453125zm-3.890625 -0.078125q0 0.1875 0 0.390625q0 0.203125 0.03125 0.390625l3.59375 -2.65625q-0.09375 -0.328125 -0.25 -0.59375q-0.140625 -0.28125 -0.359375 -0.484375q-0.203125 -0.203125 -0.46875 -0.3125q-0.265625 -0.109375 -0.609375 -0.109375q-0.4375 0 -0.796875 0.21875q-0.359375 0.21875 -0.625 0.640625q-0.25 0.421875 -0.390625 1.0625q-0.125 0.625 -0.125 1.453125z" fill-rule="nonzero"/><path fill="#000000" fill-opacity="0.0" d="m487.19028 202.07217l26.614166 0l0 24.724411l-26.614166 0z" fill-rule="evenodd"/><path fill="#000000" d="m503.34906 211.78127l-3.5625 7.453125l-1.296875 0l3.703125 -7.453125l-4.59375 0l0 -1.046875l5.75 0l0 1.046875z" fill-rule="nonzero"/><path fill="#000000" fill-opacity="0.0" d="m656.8832 290.88583l0 0c0 -4.896637 4.371399 -8.86615 9.763794 -8.86615l0 0c5.392395 0 9.763794 3.969513 9.763794 8.86615l0 0c0 4.896637 -4.371399 8.86615 -9.763794 8.86615l0 0c-5.392395 0 -9.763794 -3.969513 -9.763794 -8.86615z" fill-rule="evenodd"/><path fill="#000000" fill-opacity="0.0" d="m659.7429 284.61652l13.808105 12.538605m0 -12.538605l-13.808105 12.538605" fill-rule="evenodd"/><path fill="#000000" fill-opacity="0.0" d="m656.8832 290.88583l0 0c0 -4.896637 4.371399 -8.86615 9.763794 -8.86615l0 0c5.392395 0 9.763794 3.969513 9.763794 8.86615l0 0c0 4.896637 -4.371399 8.86615 -9.763794 8.86615l0 0c-5.392395 0 -9.763794 -3.969513 -9.763794 -8.86615z" fill-rule="evenodd"/><path stroke="#000000" stroke-width="1.0" stroke-linejoin="round" stroke-linecap="butt" d="m659.7429 284.61652l13.808105 12.538605m0 -12.538605l-13.808105 12.538605" fill-rule="evenodd"/><path stroke="#000000" stroke-width="1.0" stroke-linejoin="round" stroke-linecap="butt" d="m656.8832 290.88583l0 0c0 -4.896637 4.371399 -8.86615 9.763794 -8.86615l0 0c5.392395 0 9.763794 3.969513 9.763794 8.86615l0 0c0 4.896637 -4.371399 8.86615 -9.763794 8.86615l0 0c-5.392395 0 -9.763794 -3.969513 -9.763794 -8.86615z" fill-rule="evenodd"/><path fill="#000000" fill-opacity="0.0" d="m666.647 246.22441l0 35.37007" fill-rule="evenodd"/><path stroke="#000000" stroke-width="1.0" stroke-linejoin="round" stroke-linecap="butt" d="m666.647 246.22441l0 31.943008" fill-rule="evenodd"/><path fill="#000000" stroke="#000000" stroke-width="1.0" stroke-linecap="butt" d="m666.647 278.1674l-1.1245728 -1.1245728l1.1245728 3.0897827l1.1245728 -3.0897827z" fill-rule="evenodd"/><path fill="#000000" fill-opacity="0.0" d="m420.83597 290.88583l236.06296 0" fill-rule="evenodd"/><path stroke="#000000" stroke-width="1.0" stroke-linejoin="round" stroke-linecap="butt" d="m420.83597 290.88583l232.6359 0" fill-rule="evenodd"/><path fill="#000000" stroke="#000000" stroke-width="1.0" stroke-linecap="butt" d="m653.47186 290.88583l-1.1245728 1.1245728l3.0897827 -1.1245728l-3.0897827 -1.1246033z" fill-rule="evenodd"/><path fill="#000000" fill-opacity="0.0" d="m584.458 335.54724l164.37793 0l0 22.677155l-164.37793 0z" fill-rule="evenodd"/><path stroke="#000000" stroke-width="1.0" stroke-linejoin="round" stroke-linecap="butt" d="m584.458 335.54724l164.37793 0l0 22.677155l-164.37793 0z" fill-rule="evenodd"/><path fill="#000000" fill-opacity="0.0" d="m666.647 299.75198l0 35.811005" fill-rule="evenodd"/><path stroke="#000000" stroke-width="1.0" stroke-linejoin="round" stroke-linecap="butt" d="m666.647 299.75198l0 32.38391" fill-rule="evenodd"/><path fill="#000000" stroke="#000000" stroke-width="1.0" stroke-linecap="butt" d="m666.647 332.1359l-1.1245728 -1.1245728l1.1245728 3.0897827l1.1245728 -3.0897827z" fill-rule="evenodd"/><path fill="#000000" fill-opacity="0.0" d="m654.06696 335.54724l94.77161 0l0 22.677155l-94.77161 0z" fill-rule="evenodd"/><path stroke="#000000" stroke-width="1.0" stroke-linejoin="round" stroke-linecap="butt" d="m654.06696 335.54724l94.77161 0l0 22.677155l-94.77161 0z" fill-rule="evenodd"/><path fill="#000000" d="m664.4146 348.24707q0 0.953125 -0.265625 1.671875q-0.265625 0.71875 -0.75 1.1875q-0.46875 0.46875 -1.109375 0.703125q-0.640625 0.234375 -1.390625 0.234375q-0.34375 0 -0.6875 -0.03125q-0.34375 -0.03125 -0.6875 -0.125l0 3.015625l-1.25 0l0 -10.125l1.109375 0l0.078125 1.203125q0.546875 -0.734375 1.15625 -1.03125q0.609375 -0.296875 1.3125 -0.296875q0.609375 0 1.078125 0.265625q0.46875 0.25 0.78125 0.71875q0.3125 0.46875 0.46875 1.140625q0.15625 0.65625 0.15625 1.46875zm-1.265625 0.046875q0 -0.5625 -0.09375 -1.03125q-0.078125 -0.46875 -0.265625 -0.796875q-0.171875 -0.34375 -0.453125 -0.53125q-0.265625 -0.1875 -0.65625 -0.1875q-0.234375 0 -0.484375 0.078125q-0.234375 0.0625 -0.5 0.25q-0.265625 0.171875 -0.5625 0.46875q-0.28125 0.28125 -0.609375 0.703125l0 3.484375q0.34375 0.140625 0.71875 0.234375q0.390625 0.078125 0.75 0.078125q1.0 0 1.578125 -0.6875q0.578125 -0.6875 0.578125 -2.0625zm7.8080444 3.671875l-0.03125 -0.96875q-0.59375 0.578125 -1.203125 0.84375q-0.59375 0.25 -1.265625 0.25q-0.609375 0 -1.046875 -0.15625q-0.4375 -0.15625 -0.71875 -0.421875q-0.28125 -0.28125 -0.421875 -0.65625q-0.125 -0.375 -0.125 -0.8125q0 -1.078125 0.796875 -1.6875q0.8125 -0.609375 2.390625 -0.609375l1.484375 0l0 -0.640625q0 -0.625 -0.40625 -1.0q-0.40625 -0.390625 -1.25 -0.390625q-0.609375 0 -1.203125 0.140625q-0.578125 0.125 -1.21875 0.375l0 -1.125q0.25 -0.078125 0.53125 -0.15625q0.296875 -0.09375 0.609375 -0.15625q0.328125 -0.0625 0.671875 -0.09375q0.359375 -0.046875 0.71875 -0.046875q0.640625 0 1.15625 0.140625q0.53125 0.140625 0.890625 0.4375q0.359375 0.296875 0.546875 0.75q0.203125 0.4375 0.203125 1.03125l0 4.953125l-1.109375 0zm-0.140625 -3.265625l-1.578125 0q-0.46875 0 -0.8125 0.09375q-0.328125 0.09375 -0.546875 0.265625q-0.21875 0.171875 -0.328125 0.40625q-0.09375 0.234375 -0.09375 0.546875q0 0.203125 0.0625 0.390625q0.0625 0.1875 0.203125 0.34375q0.15625 0.140625 0.375 0.234375q0.234375 0.078125 0.5625 0.078125q0.4375 0 0.984375 -0.265625q0.5625 -0.265625 1.171875 -0.828125l0 -1.265625zm8.745605 -2.90625q0.203125 0.25 0.3125 0.59375q0.109375 0.328125 0.109375 0.71875q0 0.546875 -0.203125 1.015625q-0.203125 0.453125 -0.578125 0.78125q-0.359375 0.328125 -0.890625 0.515625q-0.515625 0.1875 -1.140625 0.1875q-0.4375 0 -0.84375 -0.09375q-0.390625 -0.109375 -0.609375 -0.25q-0.140625 0.203125 -0.234375 0.390625q-0.09375 0.171875 -0.09375 0.390625q0 0.28125 0.25 0.46875q0.265625 0.171875 0.703125 0.171875l1.890625 0.078125q0.53125 0.015625 0.984375 0.140625q0.453125 0.125 0.78125 0.359375q0.328125 0.21875 0.5 0.5625q0.1875 0.328125 0.1875 0.765625q0 0.484375 -0.203125 0.90625q-0.203125 0.4375 -0.640625 0.765625q-0.4375 0.328125 -1.109375 0.515625q-0.65625 0.1875 -1.5625 0.1875q-0.875 0 -1.5 -0.140625q-0.609375 -0.125 -1.0 -0.375q-0.390625 -0.25 -0.578125 -0.59375q-0.171875 -0.34375 -0.171875 -0.75q0 -0.515625 0.234375 -0.921875q0.25 -0.390625 0.765625 -0.75q-0.1875 -0.078125 -0.328125 -0.203125q-0.140625 -0.140625 -0.234375 -0.296875q-0.078125 -0.15625 -0.125 -0.328125q-0.03125 -0.171875 -0.03125 -0.328125q0 -0.46875 0.21875 -0.84375q0.21875 -0.390625 0.515625 -0.734375q-0.140625 -0.171875 -0.25 -0.328125q-0.09375 -0.15625 -0.171875 -0.328125q-0.078125 -0.1875 -0.125 -0.390625q-0.03125 -0.21875 -0.03125 -0.5q0 -0.5625 0.203125 -1.015625q0.21875 -0.46875 0.578125 -0.796875q0.375 -0.328125 0.890625 -0.5q0.515625 -0.1875 1.140625 -0.1875q0.265625 0 0.515625 0.03125q0.25 0.03125 0.421875 0.09375l2.609375 0l0 1.015625l-1.15625 0zm-4.3125 7.203125q0 0.515625 0.53125 0.75q0.53125 0.234375 1.46875 0.234375q0.59375 0 1.0 -0.109375q0.40625 -0.109375 0.640625 -0.28125q0.25 -0.171875 0.359375 -0.40625q0.109375 -0.21875 0.109375 -0.453125q0 -0.4375 -0.359375 -0.65625q-0.359375 -0.203125 -1.09375 -0.234375l-1.875 -0.0625q-0.234375 0.15625 -0.390625 0.296875q-0.15625 0.15625 -0.25 0.3125q-0.078125 0.15625 -0.109375 0.296875q-0.03125 0.15625 -0.03125 0.3125zm0.375 -5.875q0 0.34375 0.109375 0.640625q0.125 0.28125 0.328125 0.484375q0.203125 0.203125 0.484375 0.3125q0.28125 0.109375 0.625 0.109375q0.375 0 0.65625 -0.125q0.296875 -0.125 0.5 -0.34375q0.203125 -0.21875 0.296875 -0.484375q0.109375 -0.28125 0.109375 -0.59375q0 -0.34375 -0.125 -0.625q-0.109375 -0.28125 -0.3125 -0.484375q-0.203125 -0.203125 -0.5 -0.3125q-0.28125 -0.109375 -0.625 -0.109375q-0.359375 0 -0.65625 0.125q-0.28125 0.125 -0.484375 0.34375q-0.203125 0.203125 -0.3125 0.484375q-0.09375 0.28125 -0.09375 0.578125zm12.901794 0.875q0 0.265625 -0.015625 0.453125q0 0.171875 -0.015625 0.328125l-5.046875 0q0 1.09375 0.609375 1.6875q0.625 0.59375 1.78125 0.59375q0.3125 0 0.625 -0.015625q0.3125 -0.03125 0.609375 -0.078125q0.296875 -0.046875 0.5625 -0.09375q0.265625 -0.0625 0.5 -0.125l0 1.03125q-0.515625 0.140625 -1.15625 0.21875q-0.640625 0.09375 -1.328125 0.09375q-0.921875 0 -1.59375 -0.25q-0.65625 -0.25 -1.078125 -0.71875q-0.421875 -0.484375 -0.625 -1.171875q-0.203125 -0.6875 -0.203125 -1.5625q0 -0.765625 0.21875 -1.4375q0.21875 -0.671875 0.625 -1.1875q0.421875 -0.515625 1.03125 -0.8125q0.609375 -0.296875 1.375 -0.296875q0.765625 0 1.34375 0.234375q0.578125 0.234375 0.96875 0.671875q0.40625 0.4375 0.609375 1.0625q0.203125 0.609375 0.203125 1.375zm-1.296875 -0.1875q0.015625 -0.46875 -0.109375 -0.859375q-0.109375 -0.40625 -0.34375 -0.6875q-0.234375 -0.296875 -0.59375 -0.453125q-0.359375 -0.15625 -0.828125 -0.15625q-0.40625 0 -0.75 0.15625q-0.328125 0.15625 -0.578125 0.4375q-0.25 0.28125 -0.40625 0.6875q-0.140625 0.40625 -0.171875 0.875l3.78125 0zm17.600525 0.5q0 0.84375 -0.25 1.546875q-0.234375 0.6875 -0.671875 1.1875q-0.4375 0.5 -1.078125 0.78125q-0.640625 0.265625 -1.453125 0.265625q-0.765625 0 -1.390625 -0.234375q-0.609375 -0.234375 -1.03125 -0.703125q-0.421875 -0.46875 -0.65625 -1.15625q-0.21875 -0.6875 -0.21875 -1.578125q0 -0.84375 0.234375 -1.53125q0.234375 -0.6875 0.671875 -1.1875q0.453125 -0.5 1.09375 -0.765625q0.640625 -0.28125 1.4375 -0.28125q0.78125 0 1.390625 0.25q0.609375 0.234375 1.03125 0.703125q0.4375 0.453125 0.65625 1.140625q0.234375 0.6875 0.234375 1.5625zm-1.28125 0.0625q0 -0.671875 -0.15625 -1.15625q-0.140625 -0.5 -0.421875 -0.828125q-0.265625 -0.34375 -0.65625 -0.5q-0.375 -0.171875 -0.859375 -0.171875q-0.5625 0 -0.96875 0.21875q-0.390625 0.21875 -0.640625 0.578125q-0.25 0.359375 -0.375 0.84375q-0.109375 0.484375 -0.109375 1.015625q0 0.671875 0.140625 1.171875q0.140625 0.5 0.40625 0.828125q0.28125 0.328125 0.671875 0.5q0.390625 0.171875 0.875 0.171875q0.5625 0 0.953125 -0.21875q0.390625 -0.21875 0.640625 -0.578125q0.265625 -0.375 0.375 -0.859375q0.125 -0.484375 0.125 -1.015625zm9.44873 -5.359375q-0.96875 -0.203125 -1.6875 -0.203125q-1.671875 0 -1.671875 1.75l0 1.265625l3.140625 0l0 1.03125l-3.140625 0l0 5.109375l-1.265625 0l0 -5.109375l-2.3125 0l0 -1.03125l2.3125 0l0 -1.1875q0 -2.875 2.984375 -2.875q0.75 0 1.640625 0.171875l0 1.078125zm-7.515625 1.765625l0 0zm15.573669 -1.765625q-0.96875 -0.203125 -1.6875 -0.203125q-1.671875 0 -1.671875 1.75l0 1.265625l3.140625 0l0 1.03125l-3.140625 0l0 5.109375l-1.265625 0l0 -5.109375l-2.3125 0l0 -1.03125l2.3125 0l0 -1.1875q0 -2.875 2.984375 -2.875q0.75 0 1.640625 0.171875l0 1.078125zm-7.515625 1.765625l0 0zm14.88623 5.234375q0 0.375 -0.125 0.671875q-0.125 0.296875 -0.34375 0.53125q-0.21875 0.234375 -0.515625 0.40625q-0.296875 0.15625 -0.640625 0.265625q-0.328125 0.109375 -0.6875 0.15625q-0.34375 0.046875 -0.671875 0.046875q-0.734375 0 -1.34375 -0.0625q-0.609375 -0.0625 -1.203125 -0.203125l0 -1.140625q0.640625 0.171875 1.25 0.265625q0.625 0.09375 1.25 0.09375q0.890625 0 1.3125 -0.234375q0.4375 -0.25 0.4375 -0.703125q0 -0.1875 -0.078125 -0.34375q-0.0625 -0.15625 -0.25 -0.296875q-0.171875 -0.140625 -0.546875 -0.28125q-0.375 -0.15625 -1.015625 -0.359375q-0.5 -0.140625 -0.90625 -0.3125q-0.40625 -0.1875 -0.71875 -0.4375q-0.296875 -0.25 -0.46875 -0.578125q-0.171875 -0.34375 -0.171875 -0.8125q0 -0.296875 0.140625 -0.65625q0.140625 -0.359375 0.46875 -0.65625q0.34375 -0.3125 0.921875 -0.515625q0.578125 -0.203125 1.421875 -0.203125q0.421875 0 0.9375 0.046875q0.515625 0.046875 1.078125 0.15625l0 1.109375q-0.578125 -0.140625 -1.109375 -0.203125q-0.53125 -0.078125 -0.90625 -0.078125q-0.46875 0 -0.796875 0.078125q-0.3125 0.0625 -0.515625 0.203125q-0.1875 0.125 -0.28125 0.296875q-0.078125 0.15625 -0.078125 0.34375q0 0.203125 0.0625 0.359375q0.078125 0.15625 0.28125 0.3125q0.21875 0.140625 0.578125 0.28125q0.359375 0.140625 0.953125 0.3125q0.640625 0.1875 1.0625 0.390625q0.4375 0.203125 0.703125 0.46875q0.28125 0.25 0.390625 0.5625q0.125 0.3125 0.125 0.71875zm8.448669 -2.015625q0 0.265625 -0.015625 0.453125q0 0.171875 -0.015625 0.328125l-5.046875 0q0 1.09375 0.609375 1.6875q0.625 0.59375 1.78125 0.59375q0.3125 0 0.625 -0.015625q0.3125 -0.03125 0.609375 -0.078125q0.296875 -0.046875 0.5625 -0.09375q0.265625 -0.0625 0.5 -0.125l0 1.03125q-0.515625 0.140625 -1.15625 0.21875q-0.640625 0.09375 -1.328125 0.09375q-0.921875 0 -1.59375 -0.25q-0.65625 -0.25 -1.078125 -0.71875q-0.421875 -0.484375 -0.625 -1.171875q-0.203125 -0.6875 -0.203125 -1.5625q0 -0.765625 0.21875 -1.4375q0.21875 -0.671875 0.625 -1.1875q0.421875 -0.515625 1.03125 -0.8125q0.609375 -0.296875 1.375 -0.296875q0.765625 0 1.34375 0.234375q0.578125 0.234375 0.96875 0.671875q0.40625 0.4375 0.609375 1.0625q0.203125 0.609375 0.203125 1.375zm-1.296875 -0.1875q0.015625 -0.46875 -0.109375 -0.859375q-0.109375 -0.40625 -0.34375 -0.6875q-0.234375 -0.296875 -0.59375 -0.453125q-0.359375 -0.15625 -0.828125 -0.15625q-0.40625 0 -0.75 0.15625q-0.328125 0.15625 -0.578125 0.4375q-0.25 0.28125 -0.40625 0.6875q-0.140625 0.40625 -0.171875 0.875l3.78125 0zm9.07373 4.0625q-0.421875 0.09375 -0.875 0.140625q-0.453125 0.046875 -0.921875 0.046875q-1.34375 0 -2.015625 -0.609375q-0.65625 -0.609375 -0.65625 -1.875l0 -3.75l-2.015625 0l0 -1.046875l2.015625 0l0 -1.96875l1.234375 -0.328125l0 2.296875l3.234375 0l0 1.046875l-3.234375 0l0 3.65625q0 0.765625 0.40625 1.15625q0.421875 0.375 1.21875 0.375q0.34375 0 0.75 -0.046875q0.40625 -0.0625 0.859375 -0.171875l0 1.078125z" fill-rule="nonzero"/><path fill="#000000" fill-opacity="0.0" d="m584.458 335.54724l69.60632 0l0 22.677155l-69.60632 0z" fill-rule="evenodd"/><path stroke="#000000" stroke-width="1.0" stroke-linejoin="round" stroke-linecap="butt" d="m584.458 335.54724l69.60632 0l0 22.677155l-69.60632 0z" fill-rule="evenodd"/><path fill="#000000" d="m615.2053 342.60645l-3.171875 9.359375l-1.71875 0l-3.109375 -9.359375l1.4375 0l2.015625 6.3125l0.578125 1.84375l0.578125 -1.84375l2.03125 -6.3125l1.359375 0zm7.2924194 2.875q0 0.5625 -0.21875 1.125q-0.203125 0.5625 -0.65625 1.015625q-0.453125 0.4375 -1.15625 0.71875q-0.703125 0.265625 -1.671875 0.265625l-1.15625 0l0 3.359375l-1.28125 0l0 -9.359375l2.640625 0q0.6875 0 1.328125 0.15625q0.640625 0.15625 1.125 0.5q0.484375 0.34375 0.765625 0.890625q0.28125 0.546875 0.28125 1.328125zm-1.3125 0.046875q0 -0.890625 -0.59375 -1.375q-0.59375 -0.484375 -1.65625 -0.484375l-1.296875 0l0 3.859375l1.1875 0q1.125 0 1.734375 -0.5q0.625 -0.5 0.625 -1.5zm9.32373 6.4375l-1.671875 0l-2.71875 -5.828125l-0.78125 -1.875l0 4.71875l0 2.984375l-1.1875 0l0 -9.359375l1.625 0l2.609375 5.53125l0.9375 2.140625l0 -5.015625l0 -2.65625l1.1875 0l0 9.359375z" fill-rule="nonzero"/><path fill="#000000" fill-opacity="0.0" d="m584.458 335.54724l63.118103 0l0 22.677155l-63.118103 0z" fill-rule="evenodd"/><path stroke="#000000" stroke-width="1.0" stroke-linejoin="round" stroke-linecap="butt" d="m584.458 335.54724l63.118103 0l0 22.677155l-63.118103 0z" fill-rule="evenodd"/><path fill="#000000" fill-opacity="0.0" d="m400.20865 358.2244l0 24.999542l120.00003 0l0 -136.99953" fill-rule="evenodd"/><path stroke="#000000" stroke-width="1.0" stroke-linejoin="round" stroke-linecap="butt" stroke-dasharray="4.0,3.0" d="m400.20865 358.2244l0 24.999542l120.00003 0l0 -136.99953" fill-rule="evenodd"/><path fill="#000000" fill-opacity="0.0" d="m338.95407 358.2244l0 15.829407l277.0709 0l0 -15.766388" fill-rule="evenodd"/><path stroke="#000000" stroke-width="1.0" stroke-linejoin="round" stroke-linecap="butt" stroke-dasharray="4.0,3.0" d="m338.95407 358.2244l0 15.829407l277.0709 0l0 -15.766388" fill-rule="evenodd"/><path fill="#000000" fill-opacity="0.0" d="m537.0722 414.54987l28.0 20.005157l0 41.501495l-28.0 20.005157z" fill-rule="evenodd"/><path stroke="#000000" stroke-width="1.0" stroke-linejoin="round" stroke-linecap="butt" d="m537.0722 414.54987l28.0 20.005157l0 41.501495l-28.0 20.005157z" fill-rule="evenodd"/><path fill="#000000" fill-opacity="0.0" d="m584.458 471.54724l164.37793 0l0 22.677155l-164.37793 0z" fill-rule="evenodd"/><path stroke="#000000" stroke-width="1.0" stroke-linejoin="round" stroke-linecap="butt" d="m584.458 471.54724l164.37793 0l0 22.677155l-164.37793 0z" fill-rule="evenodd"/><path fill="#000000" fill-opacity="0.0" d="m654.06696 471.54724l94.77161 0l0 22.677155l-94.77161 0z" fill-rule="evenodd"/><path stroke="#000000" stroke-width="1.0" stroke-linejoin="round" stroke-linecap="butt" d="m654.06696 471.54724l94.77161 0l0 22.677155l-94.77161 0z" fill-rule="evenodd"/><path fill="#000000" d="m664.4146 484.24707q0 0.953125 -0.265625 1.671875q-0.265625 0.71875 -0.75 1.1875q-0.46875 0.46875 -1.109375 0.703125q-0.640625 0.234375 -1.390625 0.234375q-0.34375 0 -0.6875 -0.03125q-0.34375 -0.03125 -0.6875 -0.125l0 3.015625l-1.25 0l0 -10.125l1.109375 0l0.078125 1.203125q0.546875 -0.734375 1.15625 -1.03125q0.609375 -0.296875 1.3125 -0.296875q0.609375 0 1.078125 0.265625q0.46875 0.25 0.78125 0.71875q0.3125 0.46875 0.46875 1.140625q0.15625 0.65625 0.15625 1.46875zm-1.265625 0.046875q0 -0.5625 -0.09375 -1.03125q-0.078125 -0.46875 -0.265625 -0.796875q-0.171875 -0.34375 -0.453125 -0.53125q-0.265625 -0.1875 -0.65625 -0.1875q-0.234375 0 -0.484375 0.078125q-0.234375 0.0625 -0.5 0.25q-0.265625 0.171875 -0.5625 0.46875q-0.28125 0.28125 -0.609375 0.703125l0 3.484375q0.34375 0.140625 0.71875 0.234375q0.390625 0.078125 0.75 0.078125q1.0 0 1.578125 -0.6875q0.578125 -0.6875 0.578125 -2.0625zm7.8080444 3.671875l-0.03125 -0.96875q-0.59375 0.578125 -1.203125 0.84375q-0.59375 0.25 -1.265625 0.25q-0.609375 0 -1.046875 -0.15625q-0.4375 -0.15625 -0.71875 -0.421875q-0.28125 -0.28125 -0.421875 -0.65625q-0.125 -0.375 -0.125 -0.8125q0 -1.078125 0.796875 -1.6875q0.8125 -0.609375 2.390625 -0.609375l1.484375 0l0 -0.640625q0 -0.625 -0.40625 -1.0q-0.40625 -0.390625 -1.25 -0.390625q-0.609375 0 -1.203125 0.140625q-0.578125 0.125 -1.21875 0.375l0 -1.125q0.25 -0.078125 0.53125 -0.15625q0.296875 -0.09375 0.609375 -0.15625q0.328125 -0.0625 0.671875 -0.09375q0.359375 -0.046875 0.71875 -0.046875q0.640625 0 1.15625 0.140625q0.53125 0.140625 0.890625 0.4375q0.359375 0.296875 0.546875 0.75q0.203125 0.4375 0.203125 1.03125l0 4.953125l-1.109375 0zm-0.140625 -3.265625l-1.578125 0q-0.46875 0 -0.8125 0.09375q-0.328125 0.09375 -0.546875 0.265625q-0.21875 0.171875 -0.328125 0.40625q-0.09375 0.234375 -0.09375 0.546875q0 0.203125 0.0625 0.390625q0.0625 0.1875 0.203125 0.34375q0.15625 0.140625 0.375 0.234375q0.234375 0.078125 0.5625 0.078125q0.4375 0 0.984375 -0.265625q0.5625 -0.265625 1.171875 -0.828125l0 -1.265625zm8.745605 -2.90625q0.203125 0.25 0.3125 0.59375q0.109375 0.328125 0.109375 0.71875q0 0.546875 -0.203125 1.015625q-0.203125 0.453125 -0.578125 0.78125q-0.359375 0.328125 -0.890625 0.515625q-0.515625 0.1875 -1.140625 0.1875q-0.4375 0 -0.84375 -0.09375q-0.390625 -0.109375 -0.609375 -0.25q-0.140625 0.203125 -0.234375 0.390625q-0.09375 0.171875 -0.09375 0.390625q0 0.28125 0.25 0.46875q0.265625 0.171875 0.703125 0.171875l1.890625 0.078125q0.53125 0.015625 0.984375 0.140625q0.453125 0.125 0.78125 0.359375q0.328125 0.21875 0.5 0.5625q0.1875 0.328125 0.1875 0.765625q0 0.484375 -0.203125 0.90625q-0.203125 0.4375 -0.640625 0.765625q-0.4375 0.328125 -1.109375 0.515625q-0.65625 0.1875 -1.5625 0.1875q-0.875 0 -1.5 -0.140625q-0.609375 -0.125 -1.0 -0.375q-0.390625 -0.25 -0.578125 -0.59375q-0.171875 -0.34375 -0.171875 -0.75q0 -0.515625 0.234375 -0.921875q0.25 -0.390625 0.765625 -0.75q-0.1875 -0.078125 -0.328125 -0.203125q-0.140625 -0.140625 -0.234375 -0.296875q-0.078125 -0.15625 -0.125 -0.328125q-0.03125 -0.171875 -0.03125 -0.328125q0 -0.46875 0.21875 -0.84375q0.21875 -0.390625 0.515625 -0.734375q-0.140625 -0.171875 -0.25 -0.328125q-0.09375 -0.15625 -0.171875 -0.328125q-0.078125 -0.1875 -0.125 -0.390625q-0.03125 -0.21875 -0.03125 -0.5q0 -0.5625 0.203125 -1.015625q0.21875 -0.46875 0.578125 -0.796875q0.375 -0.328125 0.890625 -0.5q0.515625 -0.1875 1.140625 -0.1875q0.265625 0 0.515625 0.03125q0.25 0.03125 0.421875 0.09375l2.609375 0l0 1.015625l-1.15625 0zm-4.3125 7.203125q0 0.515625 0.53125 0.75q0.53125 0.234375 1.46875 0.234375q0.59375 0 1.0 -0.109375q0.40625 -0.109375 0.640625 -0.28125q0.25 -0.171875 0.359375 -0.40625q0.109375 -0.21875 0.109375 -0.453125q0 -0.4375 -0.359375 -0.65625q-0.359375 -0.203125 -1.09375 -0.234375l-1.875 -0.0625q-0.234375 0.15625 -0.390625 0.296875q-0.15625 0.15625 -0.25 0.3125q-0.078125 0.15625 -0.109375 0.296875q-0.03125 0.15625 -0.03125 0.3125zm0.375 -5.875q0 0.34375 0.109375 0.640625q0.125 0.28125 0.328125 0.484375q0.203125 0.203125 0.484375 0.3125q0.28125 0.109375 0.625 0.109375q0.375 0 0.65625 -0.125q0.296875 -0.125 0.5 -0.34375q0.203125 -0.21875 0.296875 -0.484375q0.109375 -0.28125 0.109375 -0.59375q0 -0.34375 -0.125 -0.625q-0.109375 -0.28125 -0.3125 -0.484375q-0.203125 -0.203125 -0.5 -0.3125q-0.28125 -0.109375 -0.625 -0.109375q-0.359375 0 -0.65625 0.125q-0.28125 0.125 -0.484375 0.34375q-0.203125 0.203125 -0.3125 0.484375q-0.09375 0.28125 -0.09375 0.578125zm12.901794 0.875q0 0.265625 -0.015625 0.453125q0 0.171875 -0.015625 0.328125l-5.046875 0q0 1.09375 0.609375 1.6875q0.625 0.59375 1.78125 0.59375q0.3125 0 0.625 -0.015625q0.3125 -0.03125 0.609375 -0.078125q0.296875 -0.046875 0.5625 -0.09375q0.265625 -0.0625 0.5 -0.125l0 1.03125q-0.515625 0.140625 -1.15625 0.21875q-0.640625 0.09375 -1.328125 0.09375q-0.921875 0 -1.59375 -0.25q-0.65625 -0.25 -1.078125 -0.71875q-0.421875 -0.484375 -0.625 -1.171875q-0.203125 -0.6875 -0.203125 -1.5625q0 -0.765625 0.21875 -1.4375q0.21875 -0.671875 0.625 -1.1875q0.421875 -0.515625 1.03125 -0.8125q0.609375 -0.296875 1.375 -0.296875q0.765625 0 1.34375 0.234375q0.578125 0.234375 0.96875 0.671875q0.40625 0.4375 0.609375 1.0625q0.203125 0.609375 0.203125 1.375zm-1.296875 -0.1875q0.015625 -0.46875 -0.109375 -0.859375q-0.109375 -0.40625 -0.34375 -0.6875q-0.234375 -0.296875 -0.59375 -0.453125q-0.359375 -0.15625 -0.828125 -0.15625q-0.40625 0 -0.75 0.15625q-0.328125 0.15625 -0.578125 0.4375q-0.25 0.28125 -0.40625 0.6875q-0.140625 0.40625 -0.171875 0.875l3.78125 0zm17.600525 0.5q0 0.84375 -0.25 1.546875q-0.234375 0.6875 -0.671875 1.1875q-0.4375 0.5 -1.078125 0.78125q-0.640625 0.265625 -1.453125 0.265625q-0.765625 0 -1.390625 -0.234375q-0.609375 -0.234375 -1.03125 -0.703125q-0.421875 -0.46875 -0.65625 -1.15625q-0.21875 -0.6875 -0.21875 -1.578125q0 -0.84375 0.234375 -1.53125q0.234375 -0.6875 0.671875 -1.1875q0.453125 -0.5 1.09375 -0.765625q0.640625 -0.28125 1.4375 -0.28125q0.78125 0 1.390625 0.25q0.609375 0.234375 1.03125 0.703125q0.4375 0.453125 0.65625 1.140625q0.234375 0.6875 0.234375 1.5625zm-1.28125 0.0625q0 -0.671875 -0.15625 -1.15625q-0.140625 -0.5 -0.421875 -0.828125q-0.265625 -0.34375 -0.65625 -0.5q-0.375 -0.171875 -0.859375 -0.171875q-0.5625 0 -0.96875 0.21875q-0.390625 0.21875 -0.640625 0.578125q-0.25 0.359375 -0.375 0.84375q-0.109375 0.484375 -0.109375 1.015625q0 0.671875 0.140625 1.171875q0.140625 0.5 0.40625 0.828125q0.28125 0.328125 0.671875 0.5q0.390625 0.171875 0.875 0.171875q0.5625 0 0.953125 -0.21875q0.390625 -0.21875 0.640625 -0.578125q0.265625 -0.375 0.375 -0.859375q0.125 -0.484375 0.125 -1.015625zm9.44873 -5.359375q-0.96875 -0.203125 -1.6875 -0.203125q-1.671875 0 -1.671875 1.75l0 1.265625l3.140625 0l0 1.03125l-3.140625 0l0 5.109375l-1.265625 0l0 -5.109375l-2.3125 0l0 -1.03125l2.3125 0l0 -1.1875q0 -2.875 2.984375 -2.875q0.75 0 1.640625 0.171875l0 1.078125zm-7.515625 1.765625l0 0zm15.573669 -1.765625q-0.96875 -0.203125 -1.6875 -0.203125q-1.671875 0 -1.671875 1.75l0 1.265625l3.140625 0l0 1.03125l-3.140625 0l0 5.109375l-1.265625 0l0 -5.109375l-2.3125 0l0 -1.03125l2.3125 0l0 -1.1875q0 -2.875 2.984375 -2.875q0.75 0 1.640625 0.171875l0 1.078125zm-7.515625 1.765625l0 0zm14.88623 5.234375q0 0.375 -0.125 0.671875q-0.125 0.296875 -0.34375 0.53125q-0.21875 0.234375 -0.515625 0.40625q-0.296875 0.15625 -0.640625 0.265625q-0.328125 0.109375 -0.6875 0.15625q-0.34375 0.046875 -0.671875 0.046875q-0.734375 0 -1.34375 -0.0625q-0.609375 -0.0625 -1.203125 -0.203125l0 -1.140625q0.640625 0.171875 1.25 0.265625q0.625 0.09375 1.25 0.09375q0.890625 0 1.3125 -0.234375q0.4375 -0.25 0.4375 -0.703125q0 -0.1875 -0.078125 -0.34375q-0.0625 -0.15625 -0.25 -0.296875q-0.171875 -0.140625 -0.546875 -0.28125q-0.375 -0.15625 -1.015625 -0.359375q-0.5 -0.140625 -0.90625 -0.3125q-0.40625 -0.1875 -0.71875 -0.4375q-0.296875 -0.25 -0.46875 -0.578125q-0.171875 -0.34375 -0.171875 -0.8125q0 -0.296875 0.140625 -0.65625q0.140625 -0.359375 0.46875 -0.65625q0.34375 -0.3125 0.921875 -0.515625q0.578125 -0.203125 1.421875 -0.203125q0.421875 0 0.9375 0.046875q0.515625 0.046875 1.078125 0.15625l0 1.109375q-0.578125 -0.140625 -1.109375 -0.203125q-0.53125 -0.078125 -0.90625 -0.078125q-0.46875 0 -0.796875 0.078125q-0.3125 0.0625 -0.515625 0.203125q-0.1875 0.125 -0.28125 0.296875q-0.078125 0.15625 -0.078125 0.34375q0 0.203125 0.0625 0.359375q0.078125 0.15625 0.28125 0.3125q0.21875 0.140625 0.578125 0.28125q0.359375 0.140625 0.953125 0.3125q0.640625 0.1875 1.0625 0.390625q0.4375 0.203125 0.703125 0.46875q0.28125 0.25 0.390625 0.5625q0.125 0.3125 0.125 0.71875zm8.448669 -2.015625q0 0.265625 -0.015625 0.453125q0 0.171875 -0.015625 0.328125l-5.046875 0q0 1.09375 0.609375 1.6875q0.625 0.59375 1.78125 0.59375q0.3125 0 0.625 -0.015625q0.3125 -0.03125 0.609375 -0.078125q0.296875 -0.046875 0.5625 -0.09375q0.265625 -0.0625 0.5 -0.125l0 1.03125q-0.515625 0.140625 -1.15625 0.21875q-0.640625 0.09375 -1.328125 0.09375q-0.921875 0 -1.59375 -0.25q-0.65625 -0.25 -1.078125 -0.71875q-0.421875 -0.484375 -0.625 -1.171875q-0.203125 -0.6875 -0.203125 -1.5625q0 -0.765625 0.21875 -1.4375q0.21875 -0.671875 0.625 -1.1875q0.421875 -0.515625 1.03125 -0.8125q0.609375 -0.296875 1.375 -0.296875q0.765625 0 1.34375 0.234375q0.578125 0.234375 0.96875 0.671875q0.40625 0.4375 0.609375 1.0625q0.203125 0.609375 0.203125 1.375zm-1.296875 -0.1875q0.015625 -0.46875 -0.109375 -0.859375q-0.109375 -0.40625 -0.34375 -0.6875q-0.234375 -0.296875 -0.59375 -0.453125q-0.359375 -0.15625 -0.828125 -0.15625q-0.40625 0 -0.75 0.15625q-0.328125 0.15625 -0.578125 0.4375q-0.25 0.28125 -0.40625 0.6875q-0.140625 0.40625 -0.171875 0.875l3.78125 0zm9.07373 4.0625q-0.421875 0.09375 -0.875 0.140625q-0.453125 0.046875 -0.921875 0.046875q-1.34375 0 -2.015625 -0.609375q-0.65625 -0.609375 -0.65625 -1.875l0 -3.75l-2.015625 0l0 -1.046875l2.015625 0l0 -1.96875l1.234375 -0.328125l0 2.296875l3.234375 0l0 1.046875l-3.234375 0l0 3.65625q0 0.765625 0.40625 1.15625q0.421875 0.375 1.21875 0.375q0.34375 0 0.75 -0.046875q0.40625 -0.0625 0.859375 -0.171875l0 1.078125z" fill-rule="nonzero"/><path fill="#000000" fill-opacity="0.0" d="m584.45276 486.0538l164.37793 0l0 31.873993l-164.37793 0z" fill-rule="evenodd"/><path fill="#000000" d="m591.7184 502.64944q0 0.5625 -0.21875 1.125q-0.203125 0.5625 -0.65625 1.015625q-0.453125 0.4375 -1.15625 0.71875q-0.703125 0.265625 -1.671875 0.265625l-1.15625 0l0 3.359375l-1.28125 0l0 -9.359375l2.640625 0q0.6875 0 1.328125 0.15625q0.640625 0.15625 1.125 0.5q0.484375 0.34375 0.765625 0.890625q0.28125 0.546875 0.28125 1.328125zm-1.3125 0.046875q0 -0.890625 -0.59375 -1.375q-0.59375 -0.484375 -1.65625 -0.484375l-1.296875 0l0 3.859375l1.1875 0q1.125 0 1.734375 -0.5q0.625 -0.5 0.625 -1.5zm9.026794 6.4375l-1.25 0l0 -4.59375q0 -0.828125 -0.3125 -1.234375q-0.3125 -0.40625 -0.890625 -0.40625q-0.25 0 -0.46875 0.0625q-0.21875 0.0625 -0.453125 0.234375q-0.234375 0.171875 -0.515625 0.453125q-0.28125 0.28125 -0.640625 0.71875l0 4.765625l-1.25 0l0 -10.109375l1.25 0l0 2.921875l-0.046875 1.140625q0.296875 -0.359375 0.578125 -0.59375q0.28125 -0.25 0.5625 -0.390625q0.28125 -0.15625 0.578125 -0.21875q0.296875 -0.0625 0.609375 -0.0625q1.078125 0 1.65625 0.65625q0.59375 0.65625 0.59375 1.96875l0 4.6875zm8.66748 -7.1875l-2.4375 6.421875q-0.390625 0.984375 -0.796875 1.6875q-0.390625 0.71875 -0.875 1.171875q-0.484375 0.453125 -1.0625 0.671875q-0.5625 0.21871948 -1.265625 0.21871948q-0.1875 0 -0.34375 -0.015625q-0.15625 0 -0.328125 -0.015625l0 -1.1405945q0.15625 0.03125 0.34375 0.046875q0.1875 0.015625 0.390625 0.015625q0.34375 0 0.640625 -0.109375q0.296875 -0.09375 0.5625 -0.328125q0.265625 -0.21875 0.5 -0.578125q0.25 -0.34375 0.484375 -0.859375l-2.875 -7.1875l1.421875 0l1.8125 4.75l0.375 1.125l0.40625 -1.15625l1.6875 -4.71875l1.359375 0zm7.3549194 5.234375q0 0.375 -0.125 0.671875q-0.125 0.296875 -0.34375 0.53125q-0.21875 0.234375 -0.515625 0.40625q-0.296875 0.15625 -0.640625 0.265625q-0.328125 0.109375 -0.6875 0.15625q-0.34375 0.046875 -0.671875 0.046875q-0.734375 0 -1.34375 -0.0625q-0.609375 -0.0625 -1.203125 -0.203125l0 -1.140625q0.640625 0.171875 1.25 0.265625q0.625 0.09375 1.25 0.09375q0.890625 0 1.3125 -0.234375q0.4375 -0.25 0.4375 -0.703125q0 -0.1875 -0.078125 -0.34375q-0.0625 -0.15625 -0.25 -0.296875q-0.171875 -0.140625 -0.546875 -0.28125q-0.375 -0.15625 -1.015625 -0.359375q-0.5 -0.140625 -0.90625 -0.3125q-0.40625 -0.1875 -0.71875 -0.4375q-0.296875 -0.25 -0.46875 -0.578125q-0.171875 -0.34375 -0.171875 -0.8125q0 -0.296875 0.140625 -0.65625q0.140625 -0.359375 0.46875 -0.65625q0.34375 -0.3125 0.921875 -0.515625q0.578125 -0.203125 1.421875 -0.203125q0.421875 0 0.9375 0.046875q0.515625 0.046875 1.078125 0.15625l0 1.109375q-0.578125 -0.140625 -1.109375 -0.203125q-0.53125 -0.078125 -0.90625 -0.078125q-0.46875 0 -0.796875 0.078125q-0.3125 0.0625 -0.515625 0.203125q-0.1875 0.125 -0.28125 0.296875q-0.078125 0.15625 -0.078125 0.34375q0 0.203125 0.0625 0.359375q0.078125 0.15625 0.28125 0.3125q0.21875 0.140625 0.578125 0.28125q0.359375 0.140625 0.953125 0.3125q0.640625 0.1875 1.0625 0.390625q0.4375 0.203125 0.703125 0.46875q0.28125 0.25 0.390625 0.5625q0.125 0.3125 0.125 0.71875zm4.8237305 -4.203125l-2.125 0l0 -1.03125l3.390625 0l0 6.15625l2.125 0l0 1.03125l-5.75 0l0 -1.03125l2.359375 0l0 -5.125zm0.4375 -4.046875q0.203125 0 0.375 0.078125q0.1875 0.078125 0.3125 0.21875q0.140625 0.125 0.21875 0.3125q0.078125 0.171875 0.078125 0.375q0 0.203125 -0.078125 0.390625q-0.078125 0.171875 -0.21875 0.3125q-0.125 0.125 -0.3125 0.203125q-0.171875 0.078125 -0.375 0.078125q-0.203125 0 -0.390625 -0.078125q-0.171875 -0.078125 -0.3125 -0.203125q-0.125 -0.140625 -0.203125 -0.3125q-0.078125 -0.1875 -0.078125 -0.390625q0 -0.203125 0.078125 -0.375q0.078125 -0.1875 0.203125 -0.3125q0.140625 -0.140625 0.3125 -0.21875q0.1875 -0.078125 0.390625 -0.078125zm10.761169 9.9375q-0.5 0.1875 -1.015625 0.265625q-0.5 0.09375 -1.046875 0.09375q-1.703125 0 -2.625 -0.921875q-0.921875 -0.921875 -0.921875 -2.6875q0 -0.859375 0.265625 -1.546875q0.265625 -0.703125 0.75 -1.1875q0.484375 -0.5 1.140625 -0.765625q0.671875 -0.265625 1.46875 -0.265625q0.5625 0 1.046875 0.078125q0.484375 0.078125 0.9375 0.25l0 1.1875q-0.46875 -0.234375 -0.953125 -0.34375q-0.484375 -0.109375 -1.0 -0.109375q-0.484375 0 -0.90625 0.1875q-0.421875 0.171875 -0.75 0.515625q-0.3125 0.34375 -0.5 0.84375q-0.1875 0.484375 -0.1875 1.109375q0 1.296875 0.625 1.953125q0.640625 0.640625 1.765625 0.640625q0.5 0 0.96875 -0.109375q0.484375 -0.109375 0.9375 -0.34375l0 1.15625zm7.0893555 0.265625l-0.03125 -0.96875q-0.59375 0.578125 -1.203125 0.84375q-0.59375 0.25 -1.265625 0.25q-0.609375 0 -1.046875 -0.15625q-0.4375 -0.15625 -0.71875 -0.421875q-0.28125 -0.28125 -0.421875 -0.65625q-0.125 -0.375 -0.125 -0.8125q0 -1.078125 0.796875 -1.6875q0.8125 -0.609375 2.390625 -0.609375l1.484375 0l0 -0.640625q0 -0.625 -0.40625 -1.0q-0.40625 -0.390625 -1.25 -0.390625q-0.609375 0 -1.203125 0.140625q-0.578125 0.125 -1.21875 0.375l0 -1.125q0.25 -0.078125 0.53125 -0.15625q0.296875 -0.09375 0.609375 -0.15625q0.328125 -0.0625 0.671875 -0.09375q0.359375 -0.046875 0.71875 -0.046875q0.640625 0 1.15625 0.140625q0.53125 0.140625 0.890625 0.4375q0.359375 0.296875 0.546875 0.75q0.203125 0.4375 0.203125 1.03125l0 4.953125l-1.109375 0zm-0.140625 -3.265625l-1.578125 0q-0.46875 0 -0.8125 0.09375q-0.328125 0.09375 -0.546875 0.265625q-0.21875 0.171875 -0.328125 0.40625q-0.09375 0.234375 -0.09375 0.546875q0 0.203125 0.0625 0.390625q0.0625 0.1875 0.203125 0.34375q0.15625 0.140625 0.375 0.234375q0.234375 0.078125 0.5625 0.078125q0.4375 0 0.984375 -0.265625q0.5625 -0.265625 1.171875 -0.828125l0 -1.265625zm6.0267944 -5.828125l-2.125 0l0 -1.015625l3.390625 0l0 9.078125l2.125 0l0 1.03125l-5.75 0l0 -1.03125l2.359375 0l0 -8.0625zm20.506775 9.09375l-1.390625 0l-0.640625 -2.046875l-3.90625 0l-0.65625 2.046875l-1.3125 0l3.09375 -9.359375l1.75 0l3.0625 9.359375zm-2.40625 -3.171875l-1.578125 -5.015625l-1.578125 5.015625l3.15625 0zm3.2612305 -0.265625q0 -0.921875 0.25 -1.625q0.25 -0.71875 0.703125 -1.203125q0.46875 -0.5 1.109375 -0.75q0.65625 -0.25 1.453125 -0.25q0.34375 0 0.671875 0.046875q0.328125 0.03125 0.65625 0.125l0 -3.015625l1.25 0l0 10.109375l-1.109375 0l-0.046875 -1.359375q-0.515625 0.765625 -1.125 1.125q-0.609375 0.359375 -1.328125 0.359375q-0.609375 0 -1.078125 -0.25q-0.46875 -0.265625 -0.78125 -0.734375q-0.3125 -0.46875 -0.46875 -1.125q-0.15625 -0.65625 -0.15625 -1.453125zm1.265625 -0.078125q0 1.296875 0.375 1.9375q0.390625 0.640625 1.09375 0.640625q0.484375 0 1.0 -0.421875q0.53125 -0.421875 1.109375 -1.25l0 -3.34375q-0.3125 -0.140625 -0.6875 -0.203125q-0.359375 -0.078125 -0.734375 -0.078125q-1.015625 0 -1.59375 0.65625q-0.5625 0.65625 -0.5625 2.0625zm6.7924194 0.078125q0 -0.921875 0.25 -1.625q0.25 -0.71875 0.703125 -1.203125q0.46875 -0.5 1.109375 -0.75q0.65625 -0.25 1.453125 -0.25q0.34375 0 0.671875 0.046875q0.328125 0.03125 0.65625 0.125l0 -3.015625l1.25 0l0 10.109375l-1.109375 0l-0.046875 -1.359375q-0.515625 0.765625 -1.125 1.125q-0.609375 0.359375 -1.328125 0.359375q-0.609375 0 -1.078125 -0.25q-0.46875 -0.265625 -0.78125 -0.734375q-0.3125 -0.46875 -0.46875 -1.125q-0.15625 -0.65625 -0.15625 -1.453125zm1.265625 -0.078125q0 1.296875 0.375 1.9375q0.390625 0.640625 1.09375 0.640625q0.484375 0 1.0 -0.421875q0.53125 -0.421875 1.109375 -1.25l0 -3.34375q-0.3125 -0.140625 -0.6875 -0.203125q-0.359375 -0.078125 -0.734375 -0.078125q-1.015625 0 -1.59375 0.65625q-0.5625 0.65625 -0.5625 2.0625zm7.4487305 -3.671875l1.140625 0l0.03125 1.328125q0.640625 -0.765625 1.25 -1.109375q0.625 -0.34375 1.25 -0.34375q1.125 0 1.703125 0.71875q0.578125 0.71875 0.53125 2.15625l-1.265625 0q0.03125 -0.953125 -0.265625 -1.375q-0.296875 -0.421875 -0.875 -0.421875q-0.25 0 -0.515625 0.09375q-0.25 0.078125 -0.515625 0.28125q-0.265625 0.1875 -0.5625 0.5q-0.296875 0.3125 -0.640625 0.75l0 4.609375l-1.265625 0l0 -7.1875zm13.839294 3.21875q0 0.265625 -0.015625 0.453125q0 0.171875 -0.015625 0.328125l-5.046875 0q0 1.09375 0.609375 1.6875q0.625 0.59375 1.78125 0.59375q0.3125 0 0.625 -0.015625q0.3125 -0.03125 0.609375 -0.078125q0.296875 -0.046875 0.5625 -0.09375q0.265625 -0.0625 0.5 -0.125l0 1.03125q-0.515625 0.140625 -1.15625 0.21875q-0.640625 0.09375 -1.328125 0.09375q-0.921875 0 -1.59375 -0.25q-0.65625 -0.25 -1.078125 -0.71875q-0.421875 -0.484375 -0.625 -1.171875q-0.203125 -0.6875 -0.203125 -1.5625q0 -0.765625 0.21875 -1.4375q0.21875 -0.671875 0.625 -1.1875q0.421875 -0.515625 1.03125 -0.8125q0.609375 -0.296875 1.375 -0.296875q0.765625 0 1.34375 0.234375q0.578125 0.234375 0.96875 0.671875q0.40625 0.4375 0.609375 1.0625q0.203125 0.609375 0.203125 1.375zm-1.296875 -0.1875q0.015625 -0.46875 -0.109375 -0.859375q-0.109375 -0.40625 -0.34375 -0.6875q-0.234375 -0.296875 -0.59375 -0.453125q-0.359375 -0.15625 -0.828125 -0.15625q-0.40625 0 -0.75 0.15625q-0.328125 0.15625 -0.578125 0.4375q-0.25 0.28125 -0.40625 0.6875q-0.140625 0.40625 -0.171875 0.875l3.78125 0zm8.964355 2.203125q0 0.375 -0.125 0.671875q-0.125 0.296875 -0.34375 0.53125q-0.21875 0.234375 -0.515625 0.40625q-0.296875 0.15625 -0.640625 0.265625q-0.328125 0.109375 -0.6875 0.15625q-0.34375 0.046875 -0.671875 0.046875q-0.734375 0 -1.34375 -0.0625q-0.609375 -0.0625 -1.203125 -0.203125l0 -1.140625q0.640625 0.171875 1.25 0.265625q0.625 0.09375 1.25 0.09375q0.890625 0 1.3125 -0.234375q0.4375 -0.25 0.4375 -0.703125q0 -0.1875 -0.078125 -0.34375q-0.0625 -0.15625 -0.25 -0.296875q-0.171875 -0.140625 -0.546875 -0.28125q-0.375 -0.15625 -1.015625 -0.359375q-0.5 -0.140625 -0.90625 -0.3125q-0.40625 -0.1875 -0.71875 -0.4375q-0.296875 -0.25 -0.46875 -0.578125q-0.171875 -0.34375 -0.171875 -0.8125q0 -0.296875 0.140625 -0.65625q0.140625 -0.359375 0.46875 -0.65625q0.34375 -0.3125 0.921875 -0.515625q0.578125 -0.203125 1.421875 -0.203125q0.421875 0 0.9375 0.046875q0.515625 0.046875 1.078125 0.15625l0 1.109375q-0.578125 -0.140625 -1.109375 -0.203125q-0.53125 -0.078125 -0.90625 -0.078125q-0.46875 0 -0.796875 0.078125q-0.3125 0.0625 -0.515625 0.203125q-0.1875 0.125 -0.28125 0.296875q-0.078125 0.15625 -0.078125 0.34375q0 0.203125 0.0625 0.359375q0.078125 0.15625 0.28125 0.3125q0.21875 0.140625 0.578125 0.28125q0.359375 0.140625 0.953125 0.3125q0.640625 0.1875 1.0625 0.390625q0.4375 0.203125 0.703125 0.46875q0.28125 0.25 0.390625 0.5625q0.125 0.3125 0.125 0.71875zm8.058044 0q0 0.375 -0.125 0.671875q-0.125 0.296875 -0.34375 0.53125q-0.21875 0.234375 -0.515625 0.40625q-0.296875 0.15625 -0.640625 0.265625q-0.328125 0.109375 -0.6875 0.15625q-0.34375 0.046875 -0.671875 0.046875q-0.734375 0 -1.34375 -0.0625q-0.609375 -0.0625 -1.203125 -0.203125l0 -1.140625q0.640625 0.171875 1.25 0.265625q0.625 0.09375 1.25 0.09375q0.890625 0 1.3125 -0.234375q0.4375 -0.25 0.4375 -0.703125q0 -0.1875 -0.078125 -0.34375q-0.0625 -0.15625 -0.25 -0.296875q-0.171875 -0.140625 -0.546875 -0.28125q-0.375 -0.15625 -1.015625 -0.359375q-0.5 -0.140625 -0.90625 -0.3125q-0.40625 -0.1875 -0.71875 -0.4375q-0.296875 -0.25 -0.46875 -0.578125q-0.171875 -0.34375 -0.171875 -0.8125q0 -0.296875 0.140625 -0.65625q0.140625 -0.359375 0.46875 -0.65625q0.34375 -0.3125 0.921875 -0.515625q0.578125 -0.203125 1.421875 -0.203125q0.421875 0 0.9375 0.046875q0.515625 0.046875 1.078125 0.15625l0 1.109375q-0.578125 -0.140625 -1.109375 -0.203125q-0.53125 -0.078125 -0.90625 -0.078125q-0.46875 0 -0.796875 0.078125q-0.3125 0.0625 -0.515625 0.203125q-0.1875 0.125 -0.28125 0.296875q-0.078125 0.15625 -0.078125 0.34375q0 0.203125 0.0625 0.359375q0.078125 0.15625 0.28125 0.3125q0.21875 0.140625 0.578125 0.28125q0.359375 0.140625 0.953125 0.3125q0.640625 0.1875 1.0625 0.390625q0.4375 0.203125 0.703125 0.46875q0.28125 0.25 0.390625 0.5625q0.125 0.3125 0.125 0.71875z" fill-rule="nonzero"/><path fill="#000000" fill-opacity="0.0" d="m701.45276 358.2244l0 113.322845" fill-rule="evenodd"/><path stroke="#000000" stroke-width="1.0" stroke-linejoin="round" stroke-linecap="butt" d="m701.45276 358.2244l0 107.322845" fill-rule="evenodd"/><path fill="#000000" stroke="#000000" stroke-width="1.0" stroke-linecap="butt" d="m699.801 465.54724l1.6517334 4.538086l1.6517334 -4.538086z" fill-rule="evenodd"/><path fill="#000000" fill-opacity="0.0" d="m565.0722 455.3058l54.204712 0l0 16.251953" fill-rule="evenodd"/><path stroke="#000000" stroke-width="1.0" stroke-linejoin="round" stroke-linecap="butt" d="m565.0722 455.3058l54.204712 0l0 12.82486" fill-rule="evenodd"/><path fill="#000000" stroke="#000000" stroke-width="1.0" stroke-linecap="butt" d="m619.2769 468.13065l-1.1245728 -1.1245728l1.1245728 3.0897827l1.1245728 -3.0897827z" fill-rule="evenodd"/><path fill="#000000" fill-opacity="0.0" d="m584.46063 471.54724l69.60632 0l0 22.677155l-69.60632 0z" fill-rule="evenodd"/><path fill="#000000" d="m614.4423 481.48145q0 0.5625 -0.21875 1.125q-0.203125 0.5625 -0.65625 1.015625q-0.453125 0.4375 -1.15625 0.71875q-0.703125 0.265625 -1.671875 0.265625l-1.15625 0l0 3.359375l-1.28125 0l0 -9.359375l2.640625 0q0.6875 0 1.328125 0.15625q0.640625 0.15625 1.125 0.5q0.484375 0.34375 0.765625 0.890625q0.28125 0.546875 0.28125 1.328125zm-1.3125 0.046875q0 -0.890625 -0.59375 -1.375q-0.59375 -0.484375 -1.65625 -0.484375l-1.296875 0l0 3.859375l1.1875 0q1.125 0 1.734375 -0.5q0.625 -0.5 0.625 -1.5zm8.839294 -1.828125l-3.96875 0l0 3.03125l3.765625 0l0 1.0625l-3.765625 0l0 4.171875l-1.296875 0l0 -9.359375l5.265625 0l0 1.09375zm8.54248 8.265625l-1.671875 0l-2.71875 -5.828125l-0.78125 -1.875l0 4.71875l0 2.984375l-1.1875 0l0 -9.359375l1.625 0l2.609375 5.53125l0.9375 2.140625l0 -5.015625l0 -2.65625l1.1875 0l0 9.359375z" fill-rule="nonzero"/><path fill="#000000" fill-opacity="0.0" d="m344.05118 414.2244l0 12.566956l192.75589 0" fill-rule="evenodd"/><path stroke="#000000" stroke-width="1.0" stroke-linejoin="round" stroke-linecap="butt" d="m344.05118 414.2244l0 12.566956l189.32883 0" fill-rule="evenodd"/><path fill="#000000" stroke="#000000" stroke-width="1.0" stroke-linecap="butt" d="m533.38 426.79135l-1.1245728 1.1245728l3.0897827 -1.1245728l-3.0897827 -1.1246033z" fill-rule="evenodd"/><path fill="#000000" fill-opacity="0.0" d="m344.05118 470.2244l0 12.566956l192.75589 0" fill-rule="evenodd"/><path stroke="#000000" stroke-width="1.0" stroke-linejoin="round" stroke-linecap="butt" d="m344.05118 470.2244l0 12.566956l189.32883 0" fill-rule="evenodd"/><path fill="#000000" stroke="#000000" stroke-width="1.0" stroke-linecap="butt" d="m533.38 482.79135l-1.1245728 1.1245728l3.0897827 -1.1245728l-3.0897827 -1.1246033z" fill-rule="evenodd"/><path fill="#000000" fill-opacity="0.0" d="m647.5761 335.54724l6.48822 0l0 22.677155l-6.48822 0z" fill-rule="evenodd"/><path fill="#000000" fill-opacity="0.0" d="m537.3163 424.80447l27.748047 0l0 64.12598l-27.748047 0z" fill-rule="evenodd"/><path fill="#000000" fill-opacity="0.0" d="m650.8202 358.2244l0 33.29001l-99.62201 0l0 33.292694" fill-rule="evenodd"/><path stroke="#000000" stroke-width="1.0" stroke-linejoin="round" stroke-linecap="butt" d="m650.8202 358.2244l0 33.29004l-99.62201 0l0 29.86557" fill-rule="evenodd"/><path fill="#000000" stroke="#000000" stroke-width="1.0" stroke-linecap="butt" d="m551.1982 421.38l-1.1245728 -1.1246033l1.1245728 3.0897827l1.1245728 -3.0897827z" fill-rule="evenodd"/></g></svg>